<?xml version="1.0"?>
<svg xmlns:rdf="http://www.w3.org/1999/02/22-rdf-syntax-ns#" xmlns="http://www.w3.org/2000/svg" xmlns:cc="http://creativecommons.org/ns#" xmlns:dc="http://purl.org/dc/elements/1.1/" xmlns:svg="http://www.w3.org/2000/svg" id="svg2" viewBox="0 0 120 120" version="1.0">
  <g id="layer7" transform="translate(-66.018 -74.411)">
    <g id="g2617" transform="matrix(.41996 0 0 .41996 129.83 242.39)">
      <g id="g2693" transform="matrix(1.1 0 0 1.1 -386.25 -602.43)">
        <path id="path3328" stroke="#000" stroke-width=".56241" d="m236.34 307.27c1.52 0 3.03-0.15 4.54-0.25 2.74-0.19 5.48-0.42 8.21-0.63 3.21-0.29 6.41-0.66 9.61-1.04 3.84-0.53 7.68-1.07 11.53-1.55 4.17-0.54 8.33-1.12 12.49-1.75 3.99-0.62 7.98-1.25 11.99-1.79 4.07-0.6 8.14-1.12 12.22-1.68 4.19-0.62 8.38-1.25 12.56-1.91 4.07-0.68 8.14-1.38 12.21-2.09 4-0.69 8-1.43 11.99-2.2 3.45-0.68 6.88-1.46 10.31-2.26 2.31-0.6 4.65-1.06 6.93-1.75l-2.04 1.41c-2.28 0.67-4.6 1.14-6.9 1.72-3.42 0.79-6.84 1.57-10.29 2.24-3.98 0.77-7.98 1.51-11.98 2.19-4.07 0.71-8.13 1.42-12.2 2.09-4.19 0.66-8.38 1.3-12.57 1.91-4.08 0.56-8.16 1.09-12.23 1.68-4 0.55-8 1.18-11.99 1.79-4.15 0.63-8.31 1.21-12.48 1.75-3.86 0.49-7.71 1.03-11.56 1.56-3.2 0.38-6.4 0.76-9.61 1.04-2.75 0.23-5.5 0.46-8.24 0.66-1.53 0.1-3.06 0.25-4.6 0.27l2.1-1.41z"/>
        <path id="path3330" stroke="#000" stroke-width=".56241" d="m236.02 306.75c-0.05 1.55 0 3.08 0.11 4.62 0.13 2.31 0.45 4.59 0.87 6.86 0.45 2.34 1.47 4.46 2.7 6.46 1.3 1.99 3.02 3.61 4.82 5.1 1.93 1.6 4.23 2.51 6.57 3.26 2.74 0.8 5.6 0.87 8.43 0.7 3.12-0.24 6.11-1.19 9.05-2.24 1.98-0.72 3.87-1.67 5.71-2.71 0.28-0.16-1.04 0.7-0.82 0.46 0.32-0.35 0.77-0.55 1.15-0.82 2.04-1.52 3.73-3.42 5.08-5.59 0.93-1.57 1.39-3.3 1.68-5.08 0.2-1.12 0.23-2.25 0.07-3.37-0.04-0.13-0.07-0.26-0.11-0.39l2.18-1.26c0.03 0.14 0.07 0.27 0.11 0.41 0.17 1.13 0.13 2.28-0.07 3.41-0.3 1.8-0.75 3.55-1.68 5.13-1.35 2.2-3.04 4.12-5.08 5.65-3.16 2.29-6.59 4.19-10.22 5.55-2.95 1.05-5.94 1.98-9.07 2.22-2.85 0.16-5.71 0.08-8.47-0.74-2.35-0.76-4.66-1.68-6.59-3.29-1.82-1.5-3.54-3.13-4.85-5.13-1.24-2.01-2.26-4.15-2.72-6.51-0.42-2.26-0.74-4.55-0.89-6.86-0.12-1.53-0.17-3.06-0.16-4.6l2.2-1.24z"/>
        <path id="path3332" stroke="#000" stroke-width=".56241" d="m287.07 311.12c1.4 0.28 2.82 0.45 4.24 0.58 2.39 0.21 4.78 0.29 7.18 0.37 2.72 0.08 5.44 0.06 8.16-0.04 2.48-0.08 4.95-0.29 7.41-0.56 2.28-0.28 4.54-0.67 6.79-1.17 2.33-0.51 4.64-1.12 6.94-1.76 2.31-0.65 4.58-1.43 6.84-2.22 1.78-0.62 3.55-1.23 5.32-1.86 0.96-0.36 0.49-0.17 1.41-0.56l-2.04 1.43c-0.92 0.38-0.45 0.19-1.41 0.55-1.77 0.63-3.53 1.23-5.3 1.85-2.26 0.79-4.54 1.56-6.84 2.21-2.31 0.64-4.62 1.25-6.95 1.75-2.25 0.5-4.51 0.89-6.79 1.17-2.47 0.26-4.94 0.46-7.41 0.54-2.73 0.1-5.45 0.11-8.17 0.04-2.4-0.08-4.81-0.17-7.2-0.36-1.44-0.14-2.87-0.31-4.29-0.57l2.11-1.39z"/>
        <path id="path3334" stroke="#000" stroke-width=".56241" d="m299.58 313.17c0.49 1.61 0.71 3.28 0.81 4.96 0.08 2.21-0.15 4.41-0.43 6.59-0.12 1.16-0.37 2.3-0.47 3.46-0.03 1.09 1 1.21 1.82 1.38 2.08 0.37 4.2 0.16 6.29-0.05 2.91-0.36 5.8-0.96 8.67-1.62 3.09-0.71 6.12-1.7 9.12-2.76 2.87-1.04 5.73-2.14 8.54-3.36 1.61-0.74 3.22-1.5 4.77-2.38 0.37-0.22 0.8-0.35 1.1-0.66 0.27-0.28-0.67 0.37-1.01 0.56 2.03-1.32 3.81-2.97 5.51-4.69 1.3-1.39 2.38-2.95 3.21-4.67 0.57-1.22 0.78-2.55 0.94-3.88 0.12-0.89 0.06-1.8 0.43-2.62 1.44-1.65 3.62-2.42 5.64-3.01 1.79-0.46 3.59-0.86 5.4-1.2 1.18-0.19 2.37-0.68 3.57-0.53 1.34 0.65 1.55 2.44 1.87 3.77 0.57 2.62 0.83 5.28 1.06 7.95 0.3 3.1 0.17 6.23-0.08 9.33-0.26 3.03-0.58 6.06-1 9.07-0.4 2.82-1.03 5.6-1.86 8.32-0.84 2.61-1.83 5.18-2.98 7.67-1.19 2.63-2.69 5.08-4.27 7.49-1.81 2.8-4.04 5.25-6.29 7.67-2.11 2.34-4.46 4.39-7.04 6.15-3 2.02-6.11 3.72-9.61 4.52-2.62 0.56-5.25 0.24-7.85-0.28-2.57-0.56-4.95-1.7-7.18-3.1-2.21-1.47-3.91-3.5-5.48-5.65-1.41-1.97-2.5-4.15-3.45-6.39-0.76-2.03-1.33-4.12-1.88-6.22-0.38-1.75-0.8-3.5-1.23-5.24-0.36-1.36-0.68-2.73-1.26-4.01-0.61-1.22-1.7-1.82-2.9-2.27-1.23-0.36-2.47-0.69-3.71-0.99-0.82-0.16-1.63-0.39-2.46-0.43-0.93 0.19-0.95 0.23 1.57-1.03 0.11-0.06-0.19 0.18-0.27 0.28-0.3 0.4-0.45 0.88-0.61 1.36-0.31 1.02-0.5 2.08-0.66 3.13-0.13 0.63-0.12 1.27-0.1 1.9 0.01 0.23-0.01 0.14 0.04 0.28l-2.19 1.28c-0.06-0.18-0.04-0.08-0.05-0.32-0.01-0.64-0.02-1.29 0.1-1.93 0.17-1.06 0.36-2.12 0.66-3.16 0.54-1.7 1.56-3.02 3.61-3.19 0.83 0.07 1.64 0.28 2.46 0.46 1.24 0.3 2.48 0.63 3.71 1.01 1.22 0.47 2.33 1.1 2.95 2.35 0.58 1.29 0.9 2.67 1.26 4.04 0.42 1.74 0.84 3.49 1.22 5.24 0.54 2.1 1.1 4.19 1.86 6.21 0.94 2.24 2.03 4.4 3.43 6.37 1.55 2.14 3.25 4.15 5.45 5.61 2.23 1.39 4.59 2.52 7.16 3.06 2.59 0.51 5.21 0.81 7.82 0.24 1.31-0.31 2.54-0.68 3.77-1.24 0.43-0.19 0.8-0.55 1.25-0.61 0.33-0.04-1.14 0.71-0.84 0.56 0.43-0.22 0.83-0.51 1.24-0.76 2.59-1.75 4.95-3.79 7.06-6.13 2.25-2.41 4.48-4.85 6.28-7.65 1.58-2.39 3.08-4.84 4.28-7.47 1.15-2.48 2.14-5.04 2.99-7.65 0.83-2.71 1.46-5.49 1.87-8.3 0.42-3.01 0.74-6.04 1.01-9.07 0.25-3.1 0.38-6.21 0.07-9.31-0.23-2.65-0.48-5.31-1.06-7.91-0.31-1.26-0.52-3.05-1.83-3.62-1.2-0.1-2.36 0.36-3.53 0.55-1.81 0.34-3.61 0.73-5.39 1.2-0.53 0.16-1.02 0.3-1.54 0.5-0.22 0.08-0.85 0.42-0.66 0.28 2.88-2.23 1.44-0.87 0.81-0.35-0.41 0.79-0.32 1.7-0.45 2.58-0.17 1.34-0.38 2.69-0.93 3.93-0.84 1.73-1.92 3.31-3.22 4.71-1.7 1.74-3.48 3.39-5.51 4.72-2.94 1.81-5.87 3.65-9.05 4.97-2.81 1.21-5.67 2.31-8.54 3.35-3 1.06-6.03 2.05-9.13 2.75-2.88 0.65-5.77 1.26-8.69 1.62-2.11 0.21-4.25 0.42-6.35 0.04-0.88-0.19-1.94-0.38-1.92-1.53 0.1-1.16 0.36-2.31 0.49-3.48 0.3-2.18 0.54-4.37 0.46-6.58-0.11-1.66-0.32-3.32-0.85-4.9l2.18-1.27z"/>
        <path id="path3344" stroke="#000" stroke-width=".56241" d="m298.2 343.06c-0.78 0.09-1.56 0.15-2.35 0.2-1.06 0-2.09 0.09-3.07 0.52-0.13 0.07-0.53 0.28-0.39 0.23 0.25-0.09 0.46-0.38 0.72-0.35 0.17 0.02-0.23 0.26-0.33 0.39-0.35 0.47-0.59 0.99-0.83 1.53-0.49 1.35-0.76 2.78-0.92 4.21-0.11 1.33 0.08 2.66 0.39 3.96 0.19 0.82 0.5 1.6 0.9 2.33 0.16 0.22 0.23 0.56 0.47 0.7l-1.07 0.68c-0.23-0.18-0.32-0.49-0.48-0.73-0.41-0.75-0.72-1.53-0.9-2.36-0.31-1.3-0.5-2.64-0.4-3.98 0.16-1.44 0.43-2.87 0.91-4.23 0.63-1.48 1.43-2.44 2.96-3.1 0.99-0.42 2.02-0.5 3.08-0.5 0.79-0.05 1.58-0.11 2.36-0.21l-1.05 0.71z"/>
        <path id="path3346" stroke="#000" stroke-width=".56241" d="m294.82 354.52c-0.28 1.15-0.38 2.33-0.44 3.51-0.07 1.59 0.01 3.19 0.15 4.77 0.19 1.68 0.61 3.32 1.05 4.94 0.35 1 0.47 2.11 0.94 3.05 0.32 0.3 1.23-0.23-0.66 0.6-0.07 0.03 0.1-0.11 0.15-0.17 0.1-0.14 0.18-0.3 0.28-0.45 0.25-0.42 0.46-0.87 0.75-1.27 0.47-0.64 0.59-0.56 1.52-0.82-0.15 0.97-0.17 1.96-0.15 2.94 0.02 1.58 0.2 3.15 0.51 4.7 0.29 1.68 0.85 3.3 1.36 4.92 0.4 1 0.52 2.21 1.18 3.07 0.04 0.01 0.15 0.01 0.12 0.03-0.33 0.15-0.66 0.37-1.02 0.38-0.12 0 0.04-0.23 0.06-0.35 0.08-0.5 0.11-1.01 0.17-1.51 0.14-0.89 0.26-1.79 0.39-2.69 0.01-0.1 0.02-0.21 0.04-0.32 0.11-0.83 1.17-1.76 1.26-0.38 0.09 1.33 0.47 2.61 0.91 3.85 0.69 1.75 1.65 3.36 2.68 4.9 0.96 1.36 2.12 2.55 3.31 3.68 0.85 0.73 1.67 1.48 2.51 2.21 0.44 0.34 1.48 0.28-0.44 0.68-0.09 0.02 0.02-0.18 0.02-0.27-0.01-0.13-0.04-0.25-0.06-0.38-0.3-1.31-0.77-2.57-1.22-3.83-0.55-1.42-1-2.88-1.5-4.31-0.32-0.93-0.62-1.87-0.92-2.8-0.09-0.28-0.17-0.56-0.25-0.84l1.09-0.63c0.08 0.28 0.15 0.56 0.25 0.84 0.29 0.93 0.59 1.87 0.91 2.8 0.5 1.44 0.94 2.89 1.49 4.31 0.46 1.26 0.92 2.53 1.24 3.84 0.21 1.31-0.8 1.98-1.68 1.25-0.83-0.73-1.65-1.49-2.5-2.21-1.19-1.14-2.35-2.33-3.31-3.7-1.03-1.55-1.99-3.17-2.69-4.91-0.45-1.25-0.83-2.53-0.93-3.86-0.08-1.11 1.45-2.18 0.89-0.52-0.13 0.89-0.26 1.79-0.39 2.69-0.09 0.7-0.05 3.27-1.5 2.7-0.65-0.88-0.79-2.08-1.18-3.09-0.51-1.63-1.07-3.25-1.37-4.94-0.3-1.55-0.49-3.12-0.51-4.7-0.03-0.98-0.01-1.97 0.13-2.94 2.13-1.61 1.11-0.93 0.7-0.37-0.3 0.39-0.51 0.84-0.76 1.27-0.38 0.6-1.25 1.91-1.96 1.24-0.47-0.95-0.59-2.06-0.94-3.06-0.43-1.63-0.85-3.27-1.05-4.95-0.14-1.59-0.22-3.19-0.15-4.79 0.05-1.17 0.15-2.36 0.41-3.51l1.11-0.6z"/>
        <path id="path3348" stroke="#000" stroke-width=".56241" d="m307.35 380.81c1 0.71 1.99 1.43 2.99 2.14 1.06 0.84 2.17 1.6 3.29 2.35 0.2 0.12 0.46 0.31 0.7 0.37 0.08 0.02 0.29-0.04 0.23 0.01-1.29 0.96-0.87 0.69-0.92 0.01-0.21-1.2-0.78-2.28-1.28-3.37-0.61-1.42-1.12-2.88-1.58-4.35-0.46-1.31-0.87-2.64-1.24-3.98-0.24-0.88-0.43-1.78-0.61-2.67-0.34-0.9 0.2-1.9 1.38-1.56 0.79 0.43 1.56 0.9 2.32 1.38 0.61 0.38 1.2 0.8 1.82 1.17-0.09 0.12 0.78 0.24 0.75 0.26-1.1 0.53-1 0.81-1.04 0.17-0.24-1.05-0.97-1.86-1.6-2.68-0.91-1.19-1.8-2.39-2.63-3.63-0.99-1.52-1.86-3.11-2.71-4.72-0.67-1.31-1.34-2.61-1.95-3.95l1.07-0.63c0.61 1.33 1.28 2.64 1.94 3.95 0.85 1.6 1.72 3.2 2.71 4.71 0.84 1.24 1.72 2.44 2.64 3.62 0.64 0.83 1.37 1.65 1.63 2.71 0.11 1.1-1.21 1.41-1.87 0.86-0.62-0.36-1.21-0.79-1.82-1.17-0.76-0.47-1.52-0.95-2.31-1.35-0.57-0.11-0.45-0.03 0.69-0.66 0.04-0.02-0.04 0.08-0.05 0.12-0.04 0.26 0.1 0.52 0.12 0.77 0.18 0.9 0.36 1.79 0.6 2.67 0.36 1.35 0.78 2.67 1.23 3.98 0.46 1.47 0.97 2.93 1.58 4.34 0.5 1.1 1.07 2.18 1.3 3.39 0.15 1.35-1.34 1.62-2.16 0.9-1.12-0.76-2.22-1.52-3.28-2.36-1.01-0.71-2-1.43-3.01-2.12l1.07-0.68z"/>
        <path id="path3350" stroke="#000" stroke-width=".56241" d="m304.35 355.55c0.77 0.59 1.59 1.11 2.41 1.63 1.13 0.75 2.11 0.14 0.32 0.81-0.15-0.94-0.78-1.72-1.26-2.49-0.75-1.16-1.47-2.33-2.16-3.52-0.58-1.08-1.19-2.15-1.77-3.24-0.4-0.73-0.72-1.5-0.9-2.31-0.11-0.65-0.15-1.3-0.18-1.96 0-0.53 0.02-0.94-0.44-1.26-0.38-0.18-0.78-0.26-1.18-0.34l1.05-0.69c0.41 0.09 0.82 0.17 1.2 0.36 0.47 0.34 0.47 0.75 0.46 1.31 0.04 0.65 0.07 1.31 0.18 1.95 0.17 0.81 0.49 1.57 0.89 2.3 0.57 1.09 1.18 2.16 1.76 3.24 0.69 1.19 1.41 2.36 2.16 3.51 0.49 0.79 1.13 1.58 1.29 2.53-1.29 1.09-1.17 1.23-2.48 0.47-0.82-0.52-1.64-1.05-2.43-1.63l1.08-0.67z"/>
        <path id="path3352" stroke="#000" stroke-width=".56241" d="m313.22 385.84c0.67 0.66 1.37 1.29 2.08 1.91 0.92 0.76 1.85 1.49 2.82 2.18 1.01 0.7 2.13 1.2 3.24 1.7 1.25 0.51 2.56 0.84 3.86 1.16 1.62 0.33 3.27 0.34 4.92 0.31 1.83-0.06 3.64-0.31 5.42-0.71 1.95-0.48 3.86-1.12 5.75-1.79 2.13-0.75 4.22-1.63 6.27-2.6 0.34-0.17 0.68-0.34 1.02-0.53 0.34-0.18 0.68-0.38 1.01-0.57 0.34-0.2 1.38-0.75 1.02-0.6-0.39 0.17-0.72 0.82-1.1 0.63-0.35-0.18 0.68-0.44 1.02-0.67s0.68-0.47 1.02-0.7c2.12-1.44 4.05-3.12 5.93-4.86 2.05-1.9 3.88-4.01 5.69-6.15 1.97-2.42 3.78-4.96 5.52-7.56 1.83-2.77 3.36-5.74 4.86-8.71 1.37-2.78 2.6-5.63 3.69-8.54 0.95-2.64 1.65-5.36 2.22-8.11 0.58-2.82 0.82-5.69 0.99-8.57 0.2-2.8 0.16-5.61-0.01-8.41-0.15-2.46-0.58-4.89-0.98-7.31-0.36-2.14-0.8-4.25-1.15-6.39-0.29-1.97-0.56-3.94-0.83-5.91-0.2-1.62-0.22-3.23-0.09-4.85 0.09-1.18 0.31-2.34 0.52-3.5 0.1-0.53 0.05-0.27 0.17-0.78l2.2-1.21c-0.13 0.51-0.07 0.25-0.17 0.79-0.22 1.15-0.45 2.31-0.55 3.49-0.13 1.61-0.13 3.22 0.07 4.83 0.26 1.97 0.54 3.95 0.82 5.92 0.35 2.13 0.78 4.25 1.15 6.38 0.39 2.43 0.81 4.87 0.97 7.33 0.17 2.81 0.21 5.62 0.01 8.43-0.16 2.88-0.4 5.76-0.98 8.59-0.57 2.75-1.26 5.48-2.21 8.12-1.09 2.92-2.32 5.78-3.7 8.56-1.5 2.98-3.03 5.95-4.85 8.73-1.74 2.6-3.55 5.14-5.51 7.56-1.8 2.14-3.63 4.26-5.67 6.16-1.87 1.75-3.8 3.44-5.92 4.88-2.63 1.82-5.36 3.49-8.2 4.95-2.05 0.96-4.14 1.84-6.28 2.59-1.9 0.67-3.81 1.31-5.76 1.78-1.79 0.4-3.61 0.64-5.44 0.7-1.66 0.02-3.32 0.01-4.95-0.33-1.31-0.33-2.62-0.66-3.87-1.18-1.12-0.5-2.24-1.01-3.25-1.72-0.98-0.69-1.92-1.42-2.84-2.19-0.71-0.62-1.41-1.26-2.11-1.9l2.16-1.33z"/>
        <path id="path3354" stroke="#000" stroke-width=".56241" d="m381.95 294.18c0.93-0.1 1.85-0.05 2.78 0.04 1.33 0.14 2.57 0.67 3.77 1.24 1.6 0.74 2.95 1.87 4.24 3.08 1.6 1.57 2.87 3.45 4.04 5.37 1.32 2.14 2.35 4.43 3.21 6.8 0.97 2.68 1.52 5.49 1.99 8.3 0.47 2.97 0.71 5.98 0.92 8.99 0.25 3.1 0.15 6.21-0.08 9.31-0.18 3.07-0.63 6.11-1.25 9.11-0.62 3.03-1.46 6-2.39 8.94-1 3.09-2.29 6.08-3.55 9.07-1.32 3.1-2.62 6.22-3.88 9.35-1.28 3.29-2.54 6.59-3.76 9.91-1.21 3.3-2.32 6.63-3.31 10.01-0.77 2.78-1.35 5.61-1.91 8.45-0.37 2.08-0.61 4.17-0.67 6.29 0 1.29 0.11 2.58 0.23 3.86 0.05 0.6 0.11 1.2 0.17 1.8 0 0.04 0.01 0.07 0.01 0.11l-2.19 1.25c-0.01-0.03-0.02-0.07-0.02-0.11-0.05-0.6-0.1-1.2-0.16-1.81-0.1-1.29-0.2-2.59-0.21-3.89 0.07-2.13 0.32-4.24 0.7-6.33 0.56-2.84 1.15-5.68 1.92-8.46 0.99-3.38 2.11-6.72 3.32-10.02 1.21-3.33 2.47-6.62 3.74-9.92 1.26-3.13 2.56-6.25 3.89-9.35 1.25-2.99 2.54-5.96 3.54-9.05 0.93-2.94 1.78-5.9 2.4-8.93 0.62-3 1.07-6.03 1.26-9.09 0.22-3.1 0.34-6.21 0.08-9.3-0.2-3.01-0.45-6.01-0.92-8.98-0.46-2.8-1.01-5.6-1.99-8.28-0.85-2.35-1.89-4.64-3.2-6.76-1.17-1.91-2.43-3.78-4.03-5.34-1.29-1.2-2.64-2.31-4.24-3.03-1.2-0.56-2.43-1.08-3.75-1.2-0.93-0.09-1.87-0.12-2.8 0l2.1-1.43z"/>
        <path id="path3356" stroke="#000" stroke-width=".56241" d="m387.89 416.42c0.24-1.15 0.46-2.29 0.74-3.43 0.5-1.74 0.92-3.5 1.36-5.26 0.53-2.03 1.01-4.08 1.48-6.13 0.5-2.46 1.09-4.89 1.59-7.35 0.56-2.64 1.06-5.29 1.62-7.92 0.52-2.54 1.05-5.07 1.64-7.59 0.55-2.31 1.24-4.59 2-6.84 0.8-2.39 1.74-4.72 2.78-7 1.1-2.45 2.43-4.77 3.78-7.07 1.43-2.52 3-4.96 4.47-7.46 1.53-2.73 2.84-5.59 4.09-8.48 1.3-3.1 2.17-6.36 2.96-9.63 0.77-3.14 1.16-6.36 1.32-9.59 0.11-2.83-0.21-5.64-0.83-8.38-0.63-2.34-1.59-4.56-2.8-6.64-1.16-1.88-2.43-3.67-3.84-5.35-1.48-1.61-3.02-3.15-4.61-4.64-1.62-1.47-3.29-2.88-4.97-4.27-1.5-1.19-2.88-2.51-4.18-3.92-0.98-1.09-1.83-2.29-2.61-3.53-0.49-0.84-0.74-1.8-0.97-2.75-0.02-0.13-0.05-0.26-0.08-0.4l2.18-1.25c0.02 0.13 0.05 0.26 0.08 0.39 0.22 0.94 0.46 1.89 0.93 2.73 0.77 1.23 1.61 2.43 2.58 3.51 1.3 1.41 2.67 2.73 4.16 3.91 1.68 1.4 3.35 2.81 4.98 4.28 1.58 1.5 3.14 3.04 4.61 4.65 1.42 1.69 2.7 3.49 3.85 5.38 1.21 2.09 2.18 4.32 2.81 6.67 0.63 2.76 0.94 5.58 0.83 8.42-0.16 3.24-0.55 6.47-1.31 9.62-0.79 3.28-1.66 6.54-2.95 9.65-1.24 2.89-2.55 5.75-4.08 8.49-1.46 2.5-3.03 4.93-4.46 7.45-1.35 2.3-2.68 4.62-3.78 7.06-1.04 2.28-1.98 4.6-2.78 6.99-0.75 2.24-1.45 4.51-2 6.82-0.6 2.52-1.13 5.06-1.66 7.59-0.55 2.64-1.06 5.28-1.62 7.92-0.49 2.46-1.08 4.9-1.57 7.35-0.47 2.05-0.94 4.1-1.47 6.13-0.44 1.75-0.85 3.51-1.35 5.25-0.28 1.13-0.5 2.27-0.7 3.41l-2.22 1.21z"/>
        <path id="path3358" stroke="#000" stroke-width=".56241" d="m390.72 280.27c1.62-0.07 3.26-0.03 4.89-0.02 2.41 0.03 4.82 0.04 7.23-0.02 2.41-0.05 4.82-0.15 7.22-0.28 2.16-0.17 4.32-0.31 6.47-0.49 2.12-0.21 4.24-0.44 6.37-0.62 1.8-0.12 3.61-0.3 5.41-0.5l2.91-0.33c0.42-0.05 0.84-0.1 1.27-0.15 0.14-0.01 0.27-0.03 0.41-0.04l-2.1 1.43c-0.14 0.01-0.27 0.03-0.41 0.04-0.42 0.05-0.84 0.09-1.26 0.14-0.96 0.1-1.92 0.21-2.88 0.31-1.8 0.19-3.6 0.37-5.4 0.49-2.12 0.17-4.24 0.41-6.36 0.62-2.16 0.18-4.31 0.32-6.47 0.48-2.4 0.12-4.81 0.23-7.22 0.27-2.41 0.06-4.83 0.04-7.24 0.03-1.64-0.01-3.29-0.06-4.94 0.06l2.1-1.42z"/>
        <path id="path3360" stroke="#000" stroke-width=".56241" d="m438.51 279.06c1.03 0.13 2.07 0.16 3.11 0.21 1.55 0.06 3.09 0.08 4.64 0.11 1.51 0.05 3.02 0.01 4.53-0.05 1.38-0.05 2.74-0.21 4.1-0.41 1.24-0.17 2.42-0.53 3.56-1.04 1.53-0.88-1.03 0.59-1.21 0.67-0.17 0.07 0.27-0.25 0.4-0.38 0.44-0.47 0.74-0.98 1.04-1.54 0.67-1.38 0.86-2.89 0.81-4.41-0.07-1.65-0.43-3.24-0.92-4.8-0.56-1.64-1.39-3.17-2.26-4.66-0.9-1.45-1.86-2.87-2.93-4.2-1.04-1.26-2.15-2.45-3.4-3.49-1.02-0.81-2.11-1.5-3.17-2.25-0.13-0.1-0.25-0.2-0.37-0.29l2.13-1.33c0.12 0.09 0.24 0.19 0.36 0.28 1.05 0.76 2.15 1.46 3.17 2.27 1.24 1.05 2.36 2.25 3.4 3.52 1.07 1.34 2.04 2.76 2.94 4.22 0.87 1.5 1.71 3.03 2.28 4.68 0.49 1.57 0.85 3.17 0.93 4.82 0.07 1.55-0.12 3.07-0.77 4.48-0.99 1.92-2.47 2.96-4.48 3.85-1.14 0.5-2.33 0.84-3.57 1.01-1.36 0.2-2.73 0.35-4.11 0.39-1.5 0.07-3.01 0.1-4.52 0.05-1.55-0.03-3.1-0.06-4.66-0.11-1.04-0.05-2.1-0.09-3.14-0.2l2.11-1.4z"/>
        <path id="path3362" stroke="#000" stroke-width=".56241" d="m430.83 271.82c0.46 0.73 0.87 1.5 1.27 2.28 0.46 0.89 0.79 1.85 1.07 2.82 0.24 0.94 0.41 1.9 0.47 2.86 0.04 1.01-0.07 2.02-0.29 3.01-0.27 1.17-0.91 2.12-1.6 3.07-0.84 1.18-2.12 1.89-3.46 2.29-0.79 0.19-1.49 0.01-2.13-0.49-0.52-0.51-0.94-1.11-1.27-1.78-0.3-0.69-0.47-1.44-0.63-2.18-0.12-0.61-0.2-1.23-0.27-1.84-0.01-0.09-0.02-0.17-0.03-0.25l1.1-0.62 0.03 0.24c0.06 0.62 0.14 1.23 0.26 1.84 0.16 0.74 0.32 1.48 0.63 2.17 0.31 0.66 0.73 1.25 1.25 1.76 0.63 0.48 1.32 0.63 2.1 0.43 0.34-0.1 1.73-0.67 0.16 0.14-0.15 0.08 0.28-0.18 0.4-0.29 0.33-0.28 0.48-0.51 0.75-0.85 0.69-0.93 1.34-1.88 1.62-3.04 0.21-0.98 0.32-1.99 0.29-2.99-0.06-0.96-0.23-1.92-0.47-2.85-0.27-0.97-0.6-1.92-1.06-2.81-0.4-0.77-0.8-1.54-1.27-2.26l1.08-0.66z"/>
        <path id="path3364" stroke="#000" stroke-width=".56241" d="m423.38 281.25c0.34 0.75 0.7 1.5 1.1 2.23 0.49 0.86 1.07 1.66 1.6 2.49 0.48 0.76 1.07 1.42 1.69 2.05 0.62 0.57 1.31 1.04 2.02 1.47 0.73 0.45 1.53 0.43 2.35 0.36 0.56 0.11 2.97-1.19 1.08-0.14 0.65-0.54 1.16-1.25 1.66-1.94 0.53-0.74 0.94-1.56 1.28-2.41 0.35-0.88 0.53-1.8 0.69-2.73 0.14-0.9 0.22-1.8 0.3-2.71 0.06-0.84 0.1-1.68 0.13-2.52 0.02-0.8 0.04-1.59 0.05-2.39 0-0.64-0.21-1.2-0.57-1.71-0.44-0.5-1.03-0.77-1.63-1-0.67-0.26-1.36-0.29-2.06-0.19-0.59 0-2.47 1.15-0.52 0.03-0.2 0.15-0.37 0.33-0.57 0.49l-1.13 0.56c0.2-0.14 0.37-0.33 0.57-0.48 0.86-0.54 1.67-1.17 2.69-1.31 0.71-0.09 1.4-0.05 2.08 0.22 0.6 0.23 1.21 0.51 1.64 1.03 0.38 0.51 0.59 1.09 0.6 1.74-0.02 0.8-0.03 1.6-0.06 2.4-0.03 0.84-0.06 1.68-0.13 2.52-0.07 0.91-0.16 1.81-0.3 2.71-0.15 0.93-0.33 1.87-0.68 2.75-0.34 0.85-0.74 1.67-1.26 2.43-0.51 0.69-1.02 1.39-1.66 1.95-1.07 0.66-1.99 1.3-3.25 1.41-0.82 0.06-1.63 0.06-2.36-0.4-0.71-0.44-1.41-0.91-2.02-1.48-0.64-0.63-1.22-1.3-1.71-2.06-0.53-0.83-1.1-1.64-1.59-2.5-0.4-0.72-0.77-1.47-1.12-2.23l1.09-0.64z"/>
        <path id="path3366" stroke="#000" stroke-width=".56241" d="m306.27 331.29c0.09 0.71 0.21 1.41 0.33 2.11 0.15 0.71 0.19 1.43 0.35 2.13 0.1 0.32 0.19 0.63 0.33 0.93l-1.09 0.65c-0.13-0.31-0.23-0.63-0.33-0.95-0.16-0.7-0.2-1.43-0.35-2.13-0.12-0.71-0.24-1.41-0.34-2.11l1.1-0.63z"/>
        <path id="path3370" stroke="#000" stroke-width=".56241" d="m313.99 329.34c-0.01 1.34-0.01 2.69-0.01 4.03-0.04 2.28 0.02 4.56 0.25 6.83s0.54 4.53 0.99 6.76c0.43 2 1.01 3.95 1.59 5.91 0.56 1.95 1.31 3.84 2.04 5.74 0.62 1.63 1.4 3.19 2.19 4.74 0.6 1.14 1.15 2.31 1.8 3.43 0.46 0.8 0.86 1.62 1.32 2.41 0.19 0.28 0.37 0.55 0.56 0.82l-1.08 0.65c-0.18-0.27-0.37-0.55-0.56-0.82-0.45-0.8-0.86-1.62-1.32-2.41-0.64-1.13-1.19-2.3-1.79-3.45-0.78-1.55-1.56-3.11-2.19-4.75-0.73-1.89-1.47-3.78-2.04-5.74s-1.16-3.91-1.59-5.91c-0.45-2.24-0.76-4.5-0.99-6.78-0.23-2.27-0.3-4.54-0.26-6.83 0-1.33 0-2.67-0.01-4.01l1.1-0.62z"/>
        <path id="path3372" stroke="#000" stroke-width=".56241" d="m330.89 325.06c0.05 2.29 0.33 4.56 0.64 6.83 0.48 3.43 1.23 6.81 1.96 10.19 0.64 3.02 1.47 5.99 2.42 8.91 0.77 2.43 1.77 4.76 2.85 7.04 0.79 1.67 1.72 3.25 2.66 4.83 0.57 0.97 1.16 1.93 1.8 2.85 0.35 0.51 0.79 0.93 1.25 1.34l-1.07 0.66c-0.46-0.41-0.9-0.84-1.26-1.35-0.63-0.93-1.22-1.89-1.79-2.86-0.93-1.59-1.87-3.17-2.65-4.84-1.08-2.29-2.08-4.62-2.84-7.05-0.96-2.93-1.78-5.9-2.42-8.93-0.73-3.38-1.47-6.76-1.96-10.19-0.32-2.26-0.6-4.53-0.69-6.81l1.1-0.62z"/>
        <path id="path3374" stroke="#000" stroke-width=".56241" d="m345.13 316.27c0.37 1.85 1.13 3.6 1.8 5.35 1.15 3.02 2.41 5.99 3.73 8.94 1.14 2.52 2.43 4.96 3.82 7.34 1 1.61 2.02 3.22 3.14 4.76 0.71 0.95 1.48 1.84 2.29 2.69l-1.07 0.66c-0.81-0.86-1.58-1.75-2.28-2.71-1.12-1.54-2.14-3.15-3.14-4.77-1.38-2.39-2.67-4.83-3.8-7.36-1.32-2.94-2.58-5.91-3.75-8.93-0.67-1.75-1.43-3.5-1.83-5.35l1.09-0.62z"/>
        <path id="path3376" stroke="#000" stroke-width=".56241" d="m349.98 307.8c0.94 1.17 1.75 2.45 2.58 3.7 1.3 1.98 2.7 3.88 4.1 5.78 1.17 1.58 2.41 3.09 3.69 4.58 0.9 1.07 1.88 2.07 2.8 3.12 0.61 0.71 1.24 1.4 1.93 2.02l-1.07 0.66c-0.69-0.62-1.32-1.32-1.92-2.03-0.93-1.05-1.91-2.05-2.8-3.12-1.28-1.49-2.51-3.01-3.68-4.59-1.4-1.91-2.8-3.8-4.11-5.78-0.83-1.25-1.64-2.53-2.6-3.68l1.08-0.66z"/>
        <path id="path3378" stroke="#000" stroke-width=".56241" d="m308.35 342.78c1.55 0.09 3.11 0.05 4.67 0.04 2.34 0.02 4.68-0.08 7.01-0.16 2.37-0.08 4.71-0.36 7.05-0.7 2.15-0.25 4.26-0.74 6.37-1.22 2.07-0.49 4.11-1.11 6.14-1.73 1.92-0.57 3.81-1.24 5.69-1.93 1.75-0.64 3.48-1.35 5.21-2.06 1.69-0.69 3.38-1.39 5.07-2.08 1.57-0.72 3.16-1.37 4.72-2.1 1.28-0.71 2.62-1.3 3.93-1.94 0.87-0.44 1.73-0.9 2.62-1.3-1.12 0.75 2.24-1.22 1.13-0.59-0.8 0.44-0.92 0.57-0.41 0.16l1.12-0.57c-0.86 0.73-1.88 1.23-2.87 1.72-0.89 0.4-1.74 0.87-2.62 1.3-1.31 0.64-2.63 1.24-3.92 1.94-1.56 0.72-3.15 1.38-4.72 2.09-1.69 0.7-3.38 1.39-5.07 2.09-1.73 0.7-3.46 1.41-5.21 2.05-1.88 0.68-3.77 1.36-5.69 1.93-2.03 0.61-4.07 1.23-6.14 1.72-2.11 0.48-4.22 0.97-6.37 1.21-2.34 0.34-4.68 0.62-7.05 0.69-2.34 0.08-4.68 0.18-7.02 0.17-1.56 0.01-3.13 0.05-4.69-0.03l1.05-0.7z"/>
        <path id="path3380" stroke="#000" stroke-width=".56241" d="m302.18 298.89c-0.24-1.09-0.5-2.17-0.76-3.26-0.41-1.63-0.94-3.22-1.38-4.84-0.5-1.8-1.03-3.59-1.49-5.4-0.5-1.86-0.97-3.73-1.35-5.63-0.34-1.75-0.5-3.53-0.75-5.3-0.19-1.27-0.38-2.55-0.55-3.82-0.09-0.68-0.18-1.37-0.27-2.05-0.03-1.31 2.35-2.07 2.87-2.39 0.81-0.41 1.7-0.58 2.58-0.72 1.4-0.21 2.81-0.29 4.23-0.35 1.81-0.1 3.62-0.13 5.43-0.1 2.17 0.05 4.33 0.17 6.49 0.38 2.48 0.18 4.92 0.63 7.31 1.31 2.94 0.91 5.77 2.14 8.61 3.31 2.9 1.2 5.83 2.34 8.7 3.62 2.52 1.16 5.01 2.38 7.44 3.74 1.98 1.11 3.87 2.39 5.66 3.81 1.37 1.09 2.52 2.43 3.64 3.79 0.85 1.09 1.6 2.27 2.29 3.48 0.33 0.69 0.8 1.29 1.15 1.96l-2.16 1.29c-0.33-0.68-0.81-1.28-1.13-1.96-0.68-1.21-1.42-2.39-2.27-3.48-1.11-1.35-2.26-2.68-3.62-3.77-1.77-1.42-3.66-2.69-5.63-3.81-2.42-1.35-4.91-2.57-7.42-3.74-2.87-1.28-5.79-2.41-8.69-3.61-2.84-1.18-5.68-2.4-8.62-3.29-2.4-0.67-4.83-1.11-7.31-1.28-2.16-0.21-4.33-0.32-6.49-0.37-1.82-0.03-3.63 0.01-5.44 0.11-1.42 0.07-2.84 0.16-4.24 0.37-0.88 0.16-1.77 0.33-2.57 0.78 4.04-2.44 1.4-1.34 1.39-0.33 0.08 0.69 0.16 1.37 0.25 2.06 0.16 1.28 0.34 2.55 0.53 3.83 0.24 1.77 0.4 3.55 0.74 5.3 0.37 1.89 0.84 3.76 1.34 5.62 0.46 1.81 0.99 3.6 1.49 5.4 0.45 1.62 0.98 3.21 1.4 4.84 0.26 1.07 0.52 2.15 0.79 3.22l-2.19 1.28z"/>
        <path id="path3386" stroke="#000" stroke-width=".56241" d="m297.38 273.17c-0.94 0.1-1.88 0.33-2.8 0.58-1.3 0.32-2.59 0.64-3.87 1.04-1.32 0.43-2.61 0.93-3.89 1.48-0.7 0.38-2.98 1.6 0.28-0.23 0.21-0.11-0.4 0.25-0.6 0.38-0.56 0.37-0.61 0.42-1.16 0.8-1.13 0.85-2.19 1.79-3.15 2.85-0.97 1.15-1.7 2.49-2.36 3.85-0.73 1.58-1.12 3.3-1.45 5.01-0.32 1.8-0.42 3.64-0.44 5.47 0.04 1.38 0.17 2.75 0.4 4.11 0.13 0.81 0.39 1.59 0.63 2.37 0.13 0.46 0.35 0.88 0.55 1.31 0.07 0.13 0.08 0.27 0.21 0.33l-2.14 1.35c-0.13-0.11-0.18-0.23-0.25-0.39-0.2-0.44-0.42-0.87-0.55-1.34-0.23-0.78-0.5-1.57-0.62-2.38-0.23-1.37-0.35-2.76-0.39-4.15 0.02-1.83 0.12-3.68 0.43-5.49 0.33-1.72 0.71-3.44 1.42-5.03 0.66-1.37 1.38-2.72 2.35-3.88 0.94-1.08 2.01-2.02 3.14-2.88 1.83-1.3 3.75-2.48 5.74-3.5 1.28-0.54 2.58-1.04 3.9-1.46 1.28-0.4 2.58-0.72 3.88-1.05 0.94-0.24 1.88-0.47 2.84-0.58l-2.1 1.43z"/>
        <path id="path3388" stroke="#000" stroke-width=".56241" d="m280.25 288.86c0.97-0.08 1.93-0.14 2.9-0.19 1.48-0.1 2.91 0.13 4.32 0.61 1.48 0.5 2.71 1.44 3.78 2.59 0.94 1.1 1.51 2.41 1.87 3.82 0.27 1.17 0.06 2.29-0.41 3.37-0.37 0.93-1.07 1.57-1.84 2.15-1.18 0.71-2.3 2.04-3.71 1.97l2.09-1.41c0.18-0.02 0.69-0.22 0.53-0.12-3.42 2.25-1.91 1.15-1.15 0.67 0.77-0.56 1.5-1.16 1.88-2.08 0.47-1.06 0.71-2.14 0.45-3.3-0.34-1.39-0.91-2.69-1.83-3.77-1.07-1.14-2.28-2.05-3.75-2.54-1.41-0.46-2.83-0.66-4.31-0.56-0.97 0.06-1.94 0.13-2.92 0.21l2.1-1.42z"/>
        <path id="path3390" stroke="#000" stroke-width=".56241" d="m304.39 287.68c1.09-0.23 2.2-0.32 3.31-0.35 1.53-0.06 3.04 0.14 4.51 0.57 1.32 0.41 2.44 1.17 3.44 2.11 0.88 0.88 1.42 1.94 1.74 3.14 0.27 1.09 0 2.11-0.34 3.13-0.2 0.74-0.6 1.33-1.16 1.82-0.79 0.47-1.59 0.94-2.38 1.41l2.07-1.46c-0.65 0.39-1.29 0.79-1.93 1.18 0.58-0.45 0.99-1.03 1.2-1.76 0.34-1 0.64-1.99 0.37-3.06-0.3-1.19-0.82-2.22-1.69-3.09-1-0.92-2.11-1.67-3.41-2.06-1.46-0.41-2.97-0.6-4.49-0.54-1.11 0.05-2.24 0.14-3.33 0.4l2.09-1.44z"/>
        <path id="path3392" stroke="#000" stroke-width=".56241" d="m284.37 277.65c1.24 0.1 2.48 0.26 3.71 0.41 1.74 0.18 3.47 0.35 5.2 0.56 1.31 0.15 2.62 0.27 3.92 0.39 0.68 0.1 1.34 0.24 2.02 0.27 0.32 0.01 0.65 0.05 0.98-0.01 2.8-1.25-2.96 1.97-0.34 0.34 1.03-0.71 2.01-1.49 3-2.25 1.77-1.36 3.72-2.43 5.62-3.57-0.51 0.3-1.02 0.61-1.54 0.9-0.38 0.22 0.75-0.47 1.13-0.69 1.25-0.75 2.5-1.51 3.77-2.22 0.96-0.56 1.94-1.08 2.92-1.61 0.72-0.4 1.49-0.69 2.23-1.05 0.52-0.26 1.05-0.5 1.62-0.66 0.43-0.11 0.87-0.23 1.31-0.31 1.02-0.27 2.53-1.29-1.15 0.87l2.26-1.13c-1.15 0.7-1.98 1.4-3.2 1.7-0.43 0.09-0.87 0.19-1.3 0.31-0.55 0.18-1.08 0.42-1.61 0.68-0.74 0.34-1.5 0.64-2.21 1.04-0.98 0.52-1.95 1.05-2.91 1.61-0.72 0.4-2.76 1.6 0.5-0.34 0.38-0.22-0.75 0.47-1.13 0.7-0.91 0.55-1.81 1.1-2.72 1.65 3.79-2.28-0.77 0.42-1.37 1.01-0.99 0.76-1.96 1.53-2.98 2.25-1.29 0.81-2.52 1.82-4 2.2-0.33 0.03-0.66 0-0.99-0.01-0.67-0.05-1.33-0.2-1.99-0.29-1.31-0.12-2.61-0.25-3.91-0.41-1.73-0.21-3.47-0.38-5.2-0.56-1.25-0.15-2.49-0.3-3.75-0.38l2.11-1.4z"/>
        <path id="path3394" stroke="#000" stroke-width=".56241" d="m284.22 276.93c0.07-1.5 0.35-2.98 0.64-4.45 0.55-2.71 1.58-5.27 2.65-7.79 1.34-3.17 3.14-6.07 5.08-8.87 2.2-3.18 4.91-5.89 7.73-8.45 2.99-2.68 6.27-4.96 9.58-7.17 4.19-2.79 8.54-5.29 12.96-7.65 3.48-1.84 7.13-3.29 10.81-4.62 3.49-1.24 7.08-2.16 10.7-2.91 3.99-0.77 8.02-1.18 12.06-1.54 4.08-0.36 8.17-0.52 12.26-0.55 4.59-0.01 9.17 0.41 13.74 0.8 4.76 0.3 9.45 1.07 14.13 2.01 4.41 0.9 8.74 2.12 13.05 3.44 3.81 1.22 7.62 2.46 11.4 3.78 2.89 1 5.73 2.11 8.53 3.36 1.95 0.88 3.79 1.99 5.56 3.2 1.33 0.91 2.43 2.08 3.38 3.39 0.83 1.18 1.51 2.47 2.16 3.77 0.56 1.2 1.17 2.35 1.91 3.44 0.56 0.85 1.26 1.57 2.11 2.11 0.66 0.4 1.35 0.74 2.1 0.92 0.54 0.11 1.08 0.16 1.63 0.2 0.43 0.05 0.85 0.04 1.27-0.05 0.05-0.02 0.1-0.04 0.14-0.07l-2.07 1.46c-0.05 0.01-0.11 0.03-0.16 0.05-0.43 0.06-0.85 0.06-1.28 0.01-0.55-0.04-1.1-0.1-1.64-0.22-0.75-0.21-1.45-0.55-2.11-0.96-0.86-0.56-1.56-1.29-2.13-2.16-0.74-1.09-1.35-2.26-1.91-3.45-0.64-1.3-1.32-2.59-2.15-3.76-0.94-1.3-2.03-2.46-3.34-3.36-1.76-1.21-3.6-2.31-5.53-3.2-2.79-1.25-5.62-2.36-8.5-3.37-3.77-1.32-7.57-2.57-11.37-3.79-4.3-1.32-8.63-2.54-13.04-3.43-4.67-0.94-9.36-1.7-14.12-2-4.57-0.39-9.15-0.81-13.75-0.78-4.09 0.03-8.18 0.2-12.26 0.56-4.03 0.36-8.07 0.77-12.05 1.56-3.62 0.75-7.21 1.68-10.71 2.92-3.67 1.33-7.31 2.78-10.78 4.63-3.21 1.71-5.65 2.98-8.85 5.19-3.32 2.21-6.6 4.49-9.59 7.15-2.82 2.56-5.53 5.26-7.73 8.42-1.94 2.79-3.74 5.68-5.07 8.84-1.07 2.51-2.1 5.06-2.64 7.76-0.28 1.45-0.55 2.91-0.6 4.4l-2.2 1.23z"/>
        <path id="path3443" stroke="#000" stroke-width=".56241" d="m382.74 414.66c0.77 0.39 1.61 0.6 2.44 0.8 0.84 0.19 1.7 0.32 2.56 0.43 0.62 0.08 1.24 0.14 1.87 0.19 0.43 0.04 0.86 0.06 1.29 0.08 0.26 0.01 0.51 0.02 0.77 0.03l-2.11 1.41c-0.25-0.01-0.51-0.02-0.76-0.03-0.43-0.03-0.87-0.05-1.3-0.09-0.62-0.05-1.24-0.11-1.86-0.2-0.86-0.11-1.71-0.25-2.56-0.45-0.84-0.2-1.69-0.42-2.48-0.82l2.14-1.35z"/>
        <path id="path3539" d="m384.44 414.64c-1.35-0.4-1.41-0.53-1.7-3.53-0.76-8.19 3.07-21.84 12.47-44.34 3.69-8.84 5.72-14.93 6.98-20.94 1.32-6.38 1.42-20.36 0.18-27.21-2.06-11.43-7.02-20.03-13.5-23.43-2.42-1.26-5.95-1.97-7.14-1.43-0.43 0.2-0.89 0.38-1.01 0.41-0.12 0.02-0.86 0.32-1.64 0.65-1.29 0.57-1.45 0.87-1.91 3.7-0.58 3.55-0.21 7.61 1.62 17.57 1.52 8.32 1.58 18.16 0.16 25.34-1.73 8.7-6.56 19.44-12.7 28.2-3.55 5.08-10.79 12.54-14.84 15.31-6.01 4.1-14.37 7.11-20.84 7.5-5.94 0.36-9.18-0.74-14.87-5.05-0.78-0.59-0.93-0.94-0.56-1.32 0.36-0.38 0.14-1.38-0.86-3.8-1.76-4.27-3.52-9.61-3.25-9.88 0.11-0.12 0.7 0.12 1.32 0.54 1.36 0.92 2.64 0.96 3.32 0.11 0.41-0.51 0.1-1.26-1.48-3.57-2.79-4.09-6.49-10.33-6.49-10.94 0-0.29 0.3-0.52 0.67-0.52 0.36 0 0.67-0.09 0.67-0.2s-1.31-2.44-2.91-5.16c-2.68-4.58-3.3-6.06-3.98-9.49-0.25-1.23-0.35-1.27-3.17-1.27-2.56 0-2.89-0.1-2.7-0.81 0.11-0.44 0.34-1.58 0.49-2.53 0.32-1.98 0.16-1.93 3.28-1.07 4.42 1.22 4.15 0.77 7.22 12.24 2.64 9.86 6.61 15.81 12.67 18.99 1.47 0.77 2.79 1.59 2.93 1.82 0.15 0.23 2.32 0.52 4.83 0.65 5.19 0.27 8.05-0.36 11.95-2.61 1.95-1.13 2.47-1.26 3.19-0.8 1.16 0.75 2.56-0.3 1.75-1.31-0.42-0.52-0.3-0.81 0.55-1.41 2.47-1.74 8.58-8.36 11.12-12.05 4.34-6.31 8.2-15.56 9.11-21.82 0.27-1.93 0.52-2.31 2.05-3.2 1.81-1.06 1.77-2.31-0.05-1.3-0.53 0.3-1.06 0.45-1.17 0.34-0.11-0.12 0.04-2.25 0.32-4.74 0.6-5.29 0.28-15.2-0.62-19.47-0.36-1.65-1.03-3.33-1.56-3.88l-0.94-0.98-4.81 1.06c-5.19 1.13-8.61 2.43-9.6 3.64-0.34 0.42-0.85 2.11-1.13 3.74-1.37 7.96-8.92 13.74-24.8 18.98-7.34 2.42-16.77 4.11-20.81 3.73-2.45-0.24-2.38 0.02-1.65-6.11 0.29-2.43 0.32-4.92 0.07-6.51l-0.39-2.57 6.05-0.27c8.92-0.4 15.32-1.74 26.39-5.51 6.62-2.25 9.38-3.59 8.74-4.25-0.15-0.17-3.13 0.65-6.62 1.81-7.22 2.41-12 3.72-17.12 4.72-4.54 0.87-22.33 1.33-27.13 0.69-3.13-0.42-3.71-0.38-5.12 0.39-0.88 0.47-2.22 1.09-2.98 1.38-1.33 0.49-1.4 0.64-1.6 3.59-0.64 9.23-9.72 15.91-22.45 16.54-4.29 0.21-5.34 0.11-7.84-0.75-3.62-1.24-6.27-2.98-8.65-5.68-3.16-3.56-4.64-7.56-5.26-14.24l-0.29-3.06 1.7-0.26c0.93-0.14 3.5-0.38 5.71-0.53 5.47-0.38 16.88-1.76 30.61-3.69 6.31-0.89 11.96-1.49 12.54-1.34 0.59 0.15 1.54 0.01 2.11-0.32 1.29-0.72 23.94-4.05 24.24-3.56 0.12 0.2 0.85 0.07 1.64-0.29s5.94-1.4 11.45-2.32c10-1.67 25.29-4.73 29.73-5.95 2.2-0.61 2.37-0.59 2.79 0.24 0.57 1.1 1.24 1.1 2.63-0.01l1.08-0.86-1.84-2.93c-3.48-5.52-7.57-8.82-15.89-12.83-5.96-2.87-17.62-7.61-20.95-8.51-6.56-1.77-20.89-2.03-25.18-0.46-3.08 1.12-3.68 1.91-3.38 4.48 0.19 1.73 0.11 2.19-0.41 2.19-0.56 0-5.08 1.54-7.37 2.51-1.64 0.69 0.91-8.09 4.08-14.08 4.15-7.8 9.22-13.14 18.9-19.88 12.11-8.42 24.76-13.26 39.63-15.17 5.9-0.76 25.83-0.76 32.06-0.01 13.23 1.59 26.91 5.21 41.18 10.9 8.59 3.42 11.26 5.59 14.89 12.11 1.17 2.1 2.61 4.21 3.22 4.7 1.58 1.29 4.02 2.01 5.79 1.71 1.32-0.22 1.79-0.01 3.36 1.45 5.7 5.32 9.41 14.09 7.93 18.73-0.95 2.98-1.79 3.23-11.45 3.41l-8.59 0.16 0.28-2.11c0.52-3.92-1.53-6.3-4.85-5.63-0.79 0.16-2.09 0.35-2.87 0.42-0.79 0.06-1.56 0.25-1.72 0.42-0.17 0.17 0.22 1.39 0.86 2.72 0.64 1.32 1.06 2.51 0.94 2.63-0.6 0.63-17.92 1.97-28.58 2.22-11.67 0.27-12.18 0.32-13.81 1.36l-1.68 1.07 2.67 0.02c2.66 0.01 2.67 0.02 2.72 1.41 0.07 2.19 3.12 6.27 7.52 10.06 5.65 4.88 11.77 11.41 13.47 14.4 2.78 4.86 3.4 7.38 3.42 13.77 0.02 11.08-2.85 19.74-11.2 33.76-6.51 10.91-8.53 16.55-12.17 33.81-1.21 5.79-3.05 14-4.08 18.24-2.05 8.45-1.86 8.18-5.09 7.21z" stroke="#e4770a" stroke-width=".45293" fill="#e4770a"/>
        <path id="path3555" d="m288.34 277.41c-1.77-0.42-1.62-0.54 2.43-1.87 2.37-0.78 4.56-1.26 4.88-1.06 0.31 0.2 0.56 1.08 0.56 1.95 0 1.48-0.22 1.59-2.99 1.52-1.64-0.04-3.84-0.28-4.88-0.54z" stroke="#e4770a" stroke-width=".64054" fill="#e4770a"/>
        <path id="path3557" d="m299.63 276.36c-0.23-1.24-0.26-2.84-0.08-3.55 0.18-0.72 0.07-1.3-0.25-1.3-0.31 0-0.57-0.84-0.57-1.87 0-1.58 0.31-1.94 1.97-2.28 2.53-0.53 8.76-0.53 13.65 0l3.84 0.42-4.68 2.48c-2.57 1.36-6.66 3.8-9.08 5.42l-4.39 2.94-0.41-2.26z" stroke="#e4770a" stroke-width=".64054" fill="#e4770a"/>
        <path id="path3561" stroke="#008000" stroke-width=".64054" d="m304.48 295.85c-1.53-6.01-1.53-5.95-0.11-6.41 3.94-1.3 10.1 2.07 10.1 5.53 0 1.66-0.25 1.88-2.67 2.26-1.47 0.24-3.58 0.59-4.68 0.78-1.89 0.32-2.05 0.2-2.64-2.16z"/>
        <path id="path3563" stroke="#008000" stroke-width=".64054" d="m279.21 299.57c-0.34-1.28-0.62-3.71-0.62-5.41-0.01-2.69 0.18-3.13 1.48-3.46 3.66-0.96 9.24 2.32 10.12 5.94 0.7 2.9-0.4 3.81-5.58 4.56l-4.77 0.69-0.63-2.32z"/>
        <path id="path3571" d="m307.57 389.14c-2.12-2.37-4.14-6.48-4.48-9.09-0.27-2.14-1.28-2.39-2.18-0.53-0.47 1-0.58 0.82-1.23-2.16-0.39-1.79-0.72-4.61-0.72-6.27s-0.15-3.02-0.34-3.02-0.76 0.3-1.27 0.67c-0.89 0.64-0.95 0.56-1.72-2.96-0.59-2.67-0.74-4.72-0.57-7.81 0.13-2.3 0.14-4.19 0.03-4.19-0.71 0-1.92 1.09-1.93 1.75-0.03 1.23-1.15-1.19-1.51-3.27-0.35-1.99 0.37-6.22 1.27-7.49 0.42-0.6 1.43-0.93 3.43-1.14 3.49-0.36 3.95-0.21 3.95 1.33 0 1.31 2.11 6.25 3.57 8.37 1.04 1.52 1.09 1.84 0.27 1.84-0.34 0-0.86 0.3-1.16 0.68-0.45 0.56-0.34 0.77 0.61 1.22 0.64 0.3 1.16 0.68 1.16 0.84 0 0.56 4.59 8.57 5.88 10.27 1.17 1.53 1.24 2.42 0.11 1.32-0.25-0.24-0.85-0.24-1.47 0-0.93 0.37-1.02 0.62-0.75 2.14 0.26 1.54 2.63 9.01 3.6 11.4 0.29 0.7-0.16 0.51-1.94-0.81-2.44-1.82-3.01-1.99-4.09-1.25-0.58 0.39-0.54 0.57 0.28 1.26 0.89 0.76 3.62 8.21 3.17 8.67-0.11 0.12-1-0.68-1.97-1.77z" stroke="#c69e6e" stroke-width=".45293" fill="#c69e6e"/>
        <path id="path3595" d="m430.57 288.72c0.32-0.1 0.92-0.36-0.46 0.31-0.01 0 0.07-0.08 0.13-0.24 0.25-0.34 0.05-0.08 0.94-0.58 0.06-0.04 0.27-0.13 0.21-0.09-0.77 0.43-0.82 0.7-0.74 0.36-0.14-0.19-1.49 0.77 0.52-0.41-0.18 0.2 0.03 0.12-0.05 0.31-0.09 0.09-0.04 0.19 0.07 0.16 0.02 0.07-0.01 0.13 0.03 0.19l-0.81 0.5c-0.05-0.05-0.08-0.15-0.01-0.16-0.14-0.01-0.2-0.15-0.13-0.27 0.22-0.02-0.16-0.08 0.06-0.31 0.27-0.16 0.82-0.79 1.15-0.47 0 0.03 0.02 0.07 0 0.09-0.05 0.04-2.27 1.36-0.35 0.19 0.01-0.01-0.04 0.03-0.06 0.05-0.19 0.53-0.77 0.76-1.28 0.91l0.78-0.54z" stroke="#ff0" stroke-width=".56241" fill="#ff0"/>
        <path id="path3597" d="m431.58 287.08c0.14 0.28 0.33 0.52 0.49 0.79 0.12 0.21 0.25 0.45 0.2 0.71-0.44 0.6-1.12 0.73-1.77 0.7-0.28-0.06-0.73 0.01-0.96-0.2-0.11-0.31 0.86-0.73 1-0.51l-0.81 0.49c-0.45 0.06 0.99-0.35 0.62-0.48 0.23 0.19 0.66 0.11 0.93 0.18 0.2 0 0.41 0.01 0.61-0.04 0.05-0.01 0.2-0.08 0.15-0.05-1.11 0.8-0.83 0.57-0.6 0.36 0.07-0.24-0.07-0.47-0.18-0.68-0.16-0.26-0.35-0.5-0.49-0.78l0.81-0.49z" stroke="#ff0" stroke-width=".56241" fill="#ff0"/>
        <path id="path3399" d="m360.45 321.16c-1.56-1.8-4.44-5.55-6.39-8.34l-3.54-5.08 0.44-2.31c0.25-1.27 0.59-2.49 0.77-2.69 0.45-0.52 9.06-2.28 9.75-1.99 1.72 0.71 3.15 15.49 2.11 21.78l-0.31 1.9-2.83-3.27z" stroke-width="0" fill="#fff"/>
        <path id="path3411" d="m317.03 362.2c-2.72-3.07-4.94-7.48-6.55-12.99-1.57-5.42-1.57-5.45 0.8-5.45h1.98l0.29 2.37c0.4 3.24 2.76 10.78 4.65 14.83 0.86 1.84 1.45 3.45 1.33 3.58s-1.25-0.92-2.5-2.34z" stroke="#000" stroke-width=".093775" fill="#fff"/>
        <path id="path3413" d="m317.74 294.73c0.72-5.88-7.88-9.8-14.79-6.74-0.58 0.26-0.91-0.44-1.72-3.65-0.56-2.18-0.95-4.02-0.87-4.1 1.27-1.21 9.61-6.63 12.33-8.01 6.12-3.11 5.71-3.19 10.03 1.74l3.74 4.26 1.56-0.8c1.17-0.6 1.68-1.26 2.04-2.65 0.26-1.01 0.47-2.12 0.47-2.45 0.01-0.34 0.07-0.61 0.15-0.61 0.32 0 9.36 3.92 12.03 5.22 2.84 1.38 2.97 1.52 4.74 5.28 2.08 4.39 2.94 4.88 5.12 2.9l1.37-1.25 1.63 2.05c0.9 1.13 1.56 2.28 1.48 2.55-0.27 0.87-6.75 2.2-38.1 7.84-1.42 0.26-1.43 0.25-1.21-1.58z" stroke="#000" stroke-width=".093775" fill="#fff"/>
        <path id="path3415" d="m293.03 299.01c1.21-2.42 0.24-5.69-2.44-8.22-2.03-1.92-4.63-2.67-8.48-2.43-3.65 0.22-3.73 0.03-1.71-4.32 2.15-4.64 1.96-4.56 8.81-3.77 3.23 0.37 6.3 0.68 6.83 0.69 0.79 0 1.09 0.55 1.73 3.05 0.43 1.67 1.47 5.53 2.32 8.58 0.85 3.04 1.54 5.7 1.54 5.9s-1.79 0.61-3.98 0.91c-5.29 0.73-5.18 0.74-4.62-0.39z" stroke="#000" stroke-width=".093775" fill="#fff"/>
        <path id="path3521" stroke="#000" stroke-width=".56241" d="m285.33 274.81c-1.38-0.39-2.78-0.6-4.18-0.85-2.23-0.42-4.47-0.63-6.73-0.8-2.96-0.28-5.93-0.16-8.88 0.22-3.53 0.59-6.97 1.65-10.36 2.81-3.34 1.08-6.53 2.58-9.69 4.11-1.8 0.91-3.57 1.9-5.31 2.93-0.36 0.21-1.46 0.86-1.09 0.65 0.43-0.25 0.85-0.51 1.27-0.76-2.17 1.32 0.49-0.29-3.92 2.34-0.51 0.31 1.02-0.62 1.54-0.91 1.61-0.9-1.34 0.86-1.62 1.04-4.31 3.03-2.23 0.71-0.9-0.71 1.79-1.86 3.72-3.56 5.72-5.18 2.38-1.97 4.94-3.69 7.56-5.31 3.38-2.16 6.91-4.04 10.53-5.73 3.01-1.41 6.11-2.62 9.24-3.72 2.98-1.02 6.04-1.78 9.08-2.59 2.22-0.59 4.45-1.16 6.55-2.11 2.11-1.18-0.86 0.49-0.89 0.5-0.22 0.09 0.37-0.31 0.53-0.49 0.47-0.5 0.63-0.93 0.7-1.61-0.27-1.52-1.52-2.43-2.69-3.23-2.35-1.37-5.05-1.84-7.67-2.32-3.92-0.71-7.91-0.56-11.87-0.27-5.06 0.47-10.04 1.59-14.91 3.04-4.32 1.41-8.53 3.16-12.61 5.17-2.8 1.44-5.51 3.05-8.22 4.65-0.55 0.27-3.32 2.29-2.09 0.04 1.56-2.2 3.6-3.96 5.66-5.64 4.03-3.13 8.42-5.68 12.8-8.21 4.08-2.34 8.4-4.16 12.81-5.67 4.21-1.35 8.52-2.25 12.89-2.82 2.93-0.27 5.85-0.71 8.78-0.94 1-0.15 2.1 0.02 3.07-0.32 0.14-0.05 0.51-0.28 0.38-0.21-0.71 0.37-1.42 0.75-2.13 1.12-0.82-1.42-3.03-2.12-4.44-2.75-2.93-1.32-6.01-2.19-9.12-2.9-3.62-0.85-7.29-1.35-10.97-1.79-2.89-0.37-5.79-0.53-8.69-0.63-0.31-0.01-0.63-0.02-0.95-0.04-3.08-0.19 1.47-2.09 2.8-2.5 3.59-0.95 7.26-1.56 10.92-2.1 4.64-0.68 9.3-1.14 13.97-1.46 4.24-0.25 8.5-0.12 12.73 0.19 3.5 0.34 6.96 0.94 10.41 1.61 2.36 0.48 4.7 1.08 7.04 1.7 0.73 0.16 1.45 0.42 2.19 0.57 0.81 0.17 0.78-0.06 0.78-0.06-0.71 0.39-1.43 0.76-2.15 1.13-0.23-1.58-1.91-2.64-3.04-3.52-2.33-1.81-4.86-3.28-7.46-4.61-2.53-1.24-5.06-2.46-7.63-3.6-1.8-0.74-3.59-1.51-5.38-2.27-3-1.2 2.49-2.61 3.78-2.84 3.36-0.4 6.76-0.37 10.14-0.11 3.93 0.4 7.77 1.38 11.55 2.52 3.22 1.01 6.32 2.36 9.39 3.78 1.99 0.89 3.96 1.84 5.93 2.79 0.57 0.21 1.08 0.62 1.68 0.73 0.12 0.03 0.47-0.06 0.37 0.01-2.26 1.55-2.29 1.91-1.99 0.86-0.27-1.79-1.48-3.25-2.52-4.63-1.56-1.97-3.35-3.72-5.17-5.42-0.93-1.18-2.74-1.83-3.32-3.27 1.33-2.67 5.1-2.35 7.47-2.18 3.42 0.4 6.67 1.55 9.86 2.85 3.58 1.51 6.91 3.57 10.19 5.68 2.55 1.69 4.89 3.67 7.23 5.65 1.06 0.88 2.07 1.84 3.24 2.57l-2.25 1.42c-1.16-0.75-2.17-1.7-3.23-2.6-2.32-1.99-4.65-3.97-7.18-5.66-3.28-2.1-6.6-4.16-10.18-5.66-3.19-1.28-6.45-2.42-9.87-2.79-1.05-0.07-1.55-0.13-2.59-0.08-0.35 0.01-0.7 0.04-1.04 0.1-0.28 0.04-1.03 0.4-0.83 0.19 0.4-0.42 2.42-1.79 1.48-0.84 0.51 1.43 2.39 2.06 3.27 3.23 1.81 1.71 3.6 3.47 5.17 5.44 1.07 1.41 2.28 2.89 2.61 4.71-0.26 2.84-3.3 1.93-4.63 1.12-1.96-0.96-3.92-1.91-5.9-2.81-3.06-1.42-6.15-2.76-9.37-3.77-3.77-1.14-7.61-2.12-11.53-2.5-3.38-0.25-6.79-0.28-10.16 0.17-0.36 0.06-0.72 0.12-1.07 0.2-0.28 0.07-1.02 0.43-0.81 0.24 0.52-0.5 1.18-0.81 1.8-1.18 0.06-0.03-0.14 0.11-0.11 0.17 0.07 0.16 0.81 0.46 0.83 0.47 1.78 0.77 3.56 1.54 5.35 2.29 2.57 1.14 5.1 2.38 7.62 3.62 2.61 1.33 5.15 2.81 7.49 4.61 1.23 0.95 2.85 2.01 3.18 3.67-3.15 2.14-2.27 1.93-5.41 1.06-2.32-0.63-4.65-1.23-7.01-1.71-3.44-0.68-6.89-1.28-10.37-1.61-4.23-0.31-8.48-0.44-12.72-0.18-4.67 0.31-9.32 0.78-13.96 1.46-3.68 0.55-7.36 1.17-10.96 2.16-0.32 0.11-1.18 0.56-0.95 0.32 0.49-0.49 1.15-0.74 1.73-1.12 0.06-0.03-0.21 0.05-0.18 0.12 0.05 0.1 0.19 0.11 0.3 0.13 0.4 0.08 1.27 0.09 1.62 0.11 2.89 0.12 5.78 0.29 8.65 0.67 3.69 0.44 7.37 0.95 10.99 1.8 3.12 0.71 6.21 1.58 9.15 2.9 1.5 0.68 3.76 1.37 4.59 2.92-2.74 1.89-2.81 2.08-5.86 2.15-2.93 0.23-5.83 0.64-8.75 0.91-4.35 0.57-8.66 1.48-12.85 2.83-4.41 1.52-8.73 3.34-12.8 5.69-2.52 1.46-5.43 3.26-8.37 5.55-2.05 1.66-4.07 3.4-5.64 5.57-0.14 0.23-0.5 0.46-0.4 0.72 0.12 0.35 2.22-1 2.29-1.05 2.7-1.59 5.4-3.19 8.19-4.62 4.08-1.99 8.29-3.73 12.6-5.13 4.88-1.44 9.87-2.56 14.94-3.03 3.97-0.29 7.98-0.44 11.92 0.28 2.64 0.49 5.35 0.97 7.72 2.35 1.22 0.83 2.47 1.77 2.77 3.35-0.14 2.49-3.05 3.36-4.83 4.42-2.1 0.92-4.32 1.48-6.53 2.07-3.04 0.81-6.1 1.57-9.08 2.59-3.13 1.11-6.22 2.32-9.23 3.73-2.37 1.12-4.63 2.41-6.95 3.61-0.31 0.16 0.6-0.35 0.89-0.53-2.61 1.61-5.18 3.31-7.56 5.29-1.99 1.6-3.92 3.3-5.7 5.15-1.32 1.41-1.94 2.33-3.83 3.1 1.17-0.78 7.34-4.49 3.16-1.97-0.29 0.18 0.58-0.35 0.87-0.53 3.16-1.89 6.31-3.83 9.61-5.48 3.17-1.53 6.36-3.02 9.7-4.1 3.4-1.16 6.84-2.21 10.38-2.79 2.96-0.37 5.93-0.49 8.91-0.21 2.26 0.17 4.52 0.38 6.75 0.8 1.41 0.25 2.82 0.47 4.21 0.83l-2.24 1.48z"/>
        <path id="path3523" stroke="#000" stroke-width=".56241" d="m347.97 230.34c-1.15-1.4-2.29-2.79-3.39-4.23-1.68-2.37-3.61-4.53-5.64-6.58-1.86-1.67-3.65-3.43-5.42-5.21-2.25-2.26 0.73-3.52 3.09-4.01 2.9-0.28 5.76 0.33 8.55 1.06 3.74 1.06 7.17 2.94 10.51 4.92 3.48 2.01 6.59 4.58 9.63 7.23 2.3 2.01 4.34 4.29 6.38 6.56 1 1.1 0.51 0.58 1.47 1.57l-2.26 1.38c-0.95-0.99-0.46-0.47-1.45-1.57-2.03-2.28-4.06-4.56-6.34-6.57-3.03-2.65-6.14-5.21-9.61-7.21-3.35-1.97-6.77-3.85-10.51-4.88-2.8-0.72-5.67-1.32-8.56-0.98-1.07 0.27-1.97 0.58 0.9-0.89 0.14-0.07-0.25 0.22-0.31 0.37-0.26 0.65 0.42 1.23 0.76 1.64 1.76 1.78 3.54 3.54 5.4 5.22 2.04 2.05 3.96 4.22 5.66 6.58 1.11 1.43 2.25 2.83 3.43 4.2l-2.29 1.4z"/>
        <path id="path3525" stroke="#000" stroke-width=".56241" d="m370.13 234.8c0.79-1.39 1.07-3.03 1.29-4.61 0.33-2.5-0.05-4.86-0.83-7.22-0.81-2.16-1.85-4.21-2.85-6.28-1.6-3.13 0.52-3.19 3.3-4.6 2.74-0.28 5.3 0.77 7.72 1.98 2.89 1.62 5.39 3.83 7.79 6.13 1.88 1.8 3.47 3.86 4.91 6.04 0.69 0.95 1.23 2.59 2.55 2.68 0.8-0.29 2.75-1.28-0.7 0.54-0.23 0.12 0.43-0.29 0.65-0.44 1.67-1.12-0.15 0.09 1.8-1.2 3.43-2.28 6.96-4.4 10.64-6.2 2.94-1.41 5.94-2.7 8.92-4.03 2.09-0.95 4.27-1.68 6.45-2.37 0.38-0.04 2.55-0.96 2.79-0.76 0.07 0.06 0.05 0.17 0.07 0.25-1.21 1.66-2.62 3.19-3.91 4.8-1.5 1.82-2.88 3.75-4.2 5.72-0.71 1.04-1.39 2.11-1.96 3.25-0.21 0.81 2.07-0.06 2.37-0.14 2.46-0.79 4.98-1.34 7.53-1.75 3.13-0.52 6.27-0.75 9.44-0.66 3.47 0.12 6.87 0.86 10.21 1.8 3.14 0.98 6.16 2.32 9.17 3.65 2.09 1.06 4.42 1.79 6.29 3.27 1.1 1.89-3.7 3.17-5.21 3.71-3.17 1.16-6.25 2.55-9.31 3.99-2.38 1.11-4.69 2.38-6.98 3.69 0.61-0.37-1.91 1.11-1.43 0.83 4.37-2.6-0.78 0.57-1.68 1.01l2.19-1.55c0.86-0.45 0.91-0.48-1.62 0.99-0.15 0.1 0.3-0.2 0.46-0.29 1.4-0.86 2.81-1.71 4.24-2.53 2.28-1.3 4.58-2.55 6.96-3.66 3.07-1.43 6.15-2.82 9.33-3.99 0.77-0.28 4.33-1.92 0.52 0.24-0.33 0.18 1.06-0.7 0.28-1.03-1.85-1.48-4.17-2.21-6.23-3.27-3.01-1.32-6.03-2.66-9.16-3.64-3.34-0.93-6.73-1.66-10.2-1.77-3.17-0.07-6.31 0.17-9.44 0.69-2.55 0.42-5.07 0.98-7.54 1.78-0.52 0.13-2.65 1.02-2.54-0.12 0.56-1.15 1.25-2.23 1.97-3.28 1.33-1.97 2.7-3.91 4.21-5.74 1.27-1.59 2.57-3.14 3.9-4.68-0.57-0.18-1.93 0.58-2.7 0.7-2.17 0.69-4.34 1.42-6.42 2.37-2.97 1.32-5.96 2.61-8.89 4.02-3.69 1.81-2.4 1.1-6.17 3.53-2.02 1.34-4.03 3.02-6.33 3.75-1.33-0.23-1.87-1.77-2.58-2.8-1.43-2.17-3-4.23-4.87-6.03-2.39-2.28-4.89-4.5-7.78-6.09-2.41-1.2-4.97-2.23-7.7-1.88 0.49-0.37 1-0.72 1.47-1.12 0.3-0.26-0.75 0.45-0.86 0.84-0.2 0.7 0.31 1.43 0.56 2.02 0.98 2.09 2.02 4.14 2.84 6.31 0.79 2.37 1.18 4.75 0.87 7.27-0.21 1.59-0.49 3.22-1.22 4.65l-2.38 1.23z"/>
        <path id="path3529" d="m436.05 290.37c-3.71-14.08-11.05-25.96-20.79-33.65-2.2-1.74-3.47-2.12-5.54-1.65-2.57 0.58-2.63 0.7-1.35 2.72 1.54 2.43 3.61 22.15 2.71 25.86l-0.59 2.42-4.64-4.35c-8.41-7.87-22.13-16.28-23.79-14.57-0.54 0.56-0.59 4.48-0.13 10.54 0.4 5.3 0.56 9.97 0.35 10.38-0.2 0.4-1.86-1.81-3.67-4.91-3.72-6.37-16.68-20.24-18.91-20.24-2.11 0-3.14 1.72-3.83 6.41-0.34 2.26-1.42 5.99-2.4 8.29l-1.79 4.19-2.84-5.53c-3.05-5.94-10.43-13.93-15.42-16.71-3.88-2.16-4.37-1.48-5.19 7.17l-0.61 6.37-4.17-3.81c-10.18-9.29-15.61-9.46-27.98-0.9-6.23 4.31-6.64 4.46-10.48 3.69-6.07-1.21-17.71-1.01-22.71 0.39-2.44 0.69-7.02 2.34-10.16 3.67-3.15 1.34-5.88 2.27-6.07 2.07-0.62-0.65 4.95-4.29 10.65-6.96 3.07-1.44 9.19-3.72 13.6-5.07 12.25-3.74 15.52-5.13 16.48-6.97 2.53-4.9-4.8-8.43-17.45-8.41-11.19 0.02-23.16 3.06-33.44 8.49-5.71 3.01-4.96 1.43 1.2-2.55 10.51-6.8 21.45-10.48 35.16-11.81 15.37-1.5 10.37-6.69-10.13-10.52l-8.74-1.64 7.12-0.83c14.05-1.63 27.14-0.72 40.52 2.82 1.37 0.36 2.91 0.06 4.01-0.77 1.76-1.33 1.76-1.37-0.44-3.78-1.21-1.35-6.22-4.53-11.13-7.09l-8.91-4.64 5.61 0.65c7.71 0.9 12.79 2.39 21.81 6.4 4.24 1.88 8.42 3.29 9.29 3.11 3.16-0.62 2.32-4.18-2.15-9.16l-4.29-4.78 3.54 0.58c4.97 0.82 13.44 5.32 20.32 10.82 4.74 3.79 6.41 4.62 8.74 4.39 1.59-0.16 3.03-0.74 3.2-1.29 0.17-0.54-2.94-4.59-6.91-8.98-3.98-4.4-6.87-8-6.42-8 2.61 0 11.24 3.42 15.82 6.27 5.95 3.68 16.48 13.62 16.48 15.54 0 1.65 1.34 1.56 3.05-0.22 2.06-2.13 1.84-10.62-0.38-15.14-2.28-4.62-2.28-4.62 0.92-3.67 4 1.19 11.15 6.95 14.37 11.58 1.55 2.24 3.42 4.07 4.14 4.07 0.73 0 3.96-1.57 7.2-3.5 5.89-3.52 19.59-9.79 20.14-9.22 0.16 0.16-1.48 2.75-3.65 5.75-2.16 3-3.94 5.85-3.94 6.33 0 0.51 1.41 0.63 3.34 0.29 11.11-1.99 16.94-2.36 22.02-1.42 5.68 1.06 18.28 6.07 18.28 7.26 0 0.39-1.91 1.46-4.23 2.37-2.33 0.9-6.27 2.83-8.76 4.27s-4.78 2.35-5.1 2.03c-0.31-0.33-1.17-0.08-1.89 0.54-1.17 1-1.11 1.44 0.42 3.59 3.98 5.58 5.73 27.97 3.24 41.61l-1.08 5.99-1.63-6.18z" stroke="#c69e6e" stroke-width=".90586" fill="#c69e6e"/>
        <path id="path3527" stroke="#000" stroke-width=".56241" d="m436.86 245.1c1.41 1.01 2.13 2.75 2.85 4.3 1.43 3.43 2.05 7.13 2.61 10.79 0.69 4.49 0.83 9.03 0.85 13.57 0 4.25-0.34 8.47-0.95 12.67-0.52 3.58-1.28 7.12-2.02 10.66-0.54 1.71-0.67 3.66-1.52 5.27-0.85 0.4-1.66 0.94-2.56 1.19-0.19 0.06-1.08-4.1-1.16-4.49-0.82-3.43-1.68-6.85-2.61-10.24-1.14-4.15-2.84-8.08-4.75-11.9-1.97-3.71-4.23-7.26-6.83-10.53-1.96-2.47-4.28-4.56-6.7-6.53-1.36-1.12-2.77-2.19-4.28-3.09-0.74-0.32-3.45-0.69 1.85-1.06 0.07 0 0.78 2.71 0.83 2.92 0.76 3.47 1.08 7.03 1.38 10.57 0.35 3.73 0.43 7.47 0.35 11.21-0.14 2.58-0.42 5.15-0.69 7.72 0.13 1.87-2.03 4.11-3.7 2.8-1.47-1.73-2.87-3.51-4.41-5.18-2.22-2.21-4.5-4.36-6.89-6.38-2.25-1.86-4.61-3.55-7.08-5.08-1.78-1.04-3.61-1.99-5.41-3.01-0.94-0.52-1.89-1.04-2.83-1.56-0.42-0.24-0.84-0.47-1.26-0.7-1.38-0.53 1.71-2.82 2.31-0.88 0.38 2.25 0.53 4.53 0.72 6.8 0.26 3.35 0.41 6.7 0.54 10.05 0.11 2.98-0.08 5.95-0.26 8.92-0.3 3.71 0.6 2.96-2.98 4.56-0.75-1.8-1.39-3.64-2.1-5.46-1.31-3.22-3.05-6.23-4.85-9.18-2.01-3.25-4.35-6.25-6.84-9.13-1.99-2.25-4.25-4.23-6.46-6.26-1.24-1.08-2.35-2.33-3.67-3.31-0.92-0.54-2.22 0.25 1.59-1.37 0.11-0.04-0.09 0.22-0.13 0.33-0.11 0.38-0.17 0.88-0.24 1.25-0.32 2.09-0.67 4.17-1.14 6.22-0.6 2.23-1.5 4.36-2.41 6.47-0.64 1.45-1.37 2.85-2.1 4.24-0.38 0.67-0.66 1.42-1.15 2.01-1.77 1.81-2.58 2.26-3.62 0.63-0.59-1.04-1.05-2.13-1.48-3.25-0.46-1.4-1.12-2.72-1.75-4.05-0.79-1.64-1.78-3.14-2.77-4.66-1.26-2.01-2.9-3.67-4.6-5.27-1.57-1.5-3.23-2.87-4.97-4.15-1.14-0.83-2.29-1.64-3.45-2.45-0.88-0.61-2.05-0.36 1.67-1.29 0.16-0.04-0.04 0.32-0.05 0.48-0.03 0.48-0.03 0.96-0.06 1.44-0.09 2.18-0.35 4.36-0.69 6.51-0.29 1.9-0.71 3.77-1.16 5.63-0.33 0.75-0.19 1.95-0.82 2.54-0.85 0.42-1.66 0.95-2.56 1.25-0.14 0.04-1.9-2.19-2.07-2.41-1.07-1.51-2.26-2.93-3.57-4.23-1.39-1.35-3.01-2.42-4.61-3.48-1.15-0.76-2.32-1.48-3.54-2.11-0.66-0.34-1.34-0.65-2.02-0.95-0.32-0.13-0.62-0.32-0.95-0.41-0.73-0.16-1.47-0.07-2.21-0.03-1.59 0.14-3.11 0.68-4.61 1.23-1.2 0.45-2.36 1.04-3.5 1.64-0.32 0.18-1.28 0.73-0.96 0.54 0.41-0.26 0.85-0.49 1.28-0.73-1.84 1.25-3.62 2.61-5.41 3.94-1.21 0.98-2.61 1.67-3.85 2.61l-2.38 1.19c1.22-0.97 2.66-1.62 3.87-2.63 1.79-1.33 3.58-2.67 5.41-3.95 2.5-1.51 4.98-3.11 7.72-4.13 1.51-0.55 3.04-1.08 4.65-1.2 0.74-0.04 1.51-0.14 2.24 0.05 0.33 0.12 0.64 0.29 0.96 0.43 0.68 0.31 1.35 0.62 2.01 0.96 1.21 0.65 2.38 1.37 3.53 2.14 1.61 1.07 3.22 2.14 4.63 3.5 1.3 1.31 2.5 2.73 3.58 4.24 0.44 0.58 0.88 1.16 1.37 1.7 0.12 0.13 0.24 0.26 0.38 0.38 0.09 0.09 0.4 0.16 0.3 0.25-0.62 0.57-1.39 0.93-2.09 1.4 0.73-0.32 0.57-1.83 0.89-2.46 0.46-1.86 0.89-3.73 1.18-5.63 0.35-2.14 0.61-4.31 0.69-6.49 0.06-1.47-0.04-5.37 3.01-3.34 1.15 0.82 2.3 1.63 3.43 2.46 1.74 1.29 3.4 2.67 4.97 4.18 1.7 1.61 3.36 3.27 4.62 5.29 1 1.52 2 3.03 2.8 4.67 0.63 1.33 1.29 2.65 1.76 4.05 0.42 1.11 0.88 2.2 1.47 3.22 0.17 0.26 0.29 0.48 0.51 0.69 0.28 0.26 0.43 0.09 0.37 0.13-2.76 1.86-2.68 1.79-1.93 1.15 0.53-0.56 0.79-1.32 1.18-1.98 0.74-1.4 1.48-2.8 2.12-4.25 0.92-2.1 1.82-4.23 2.43-6.45 0.48-2.04 0.82-4.11 1.13-6.19 0.25-1.63 0.83-4.36 3.37-2.92 1.3 1 2.4 2.25 3.64 3.34 2.2 2.04 4.45 4.04 6.44 6.3 2.49 2.88 4.83 5.89 6.85 9.15 1.8 2.95 3.55 5.96 4.88 9.18 0.71 1.79 1.36 3.61 2.12 5.38-0.71 0.5-1.43 0.99-2.14 1.49-0.06 0.04 0.13-0.04 0.17-0.1 0.07-0.13 0.09-0.28 0.11-0.43 0.18-0.93 0.17-1.89 0.26-2.83 0.2-2.97 0.39-5.94 0.29-8.92-0.13-3.35-0.27-6.69-0.54-10.03-0.2-2.26-0.36-4.53-0.76-6.75-0.42-1.35 1.41-2.62 2.27-1.91 0.41 0.23 0.83 0.47 1.25 0.7 0.94 0.52 1.87 1.05 2.81 1.58 1.79 1.02 3.61 1.98 5.39 3.03 2.47 1.53 4.83 3.23 7.08 5.1 2.39 2.02 4.67 4.18 6.9 6.39 1.54 1.66 2.94 3.43 4.44 5.13 0.12 0.08 0.24 0.2 0.38 0.26 0.09 0.04 0.4-0.02 0.31 0.04-3.12 2.41-1.66 1.25-1.56-0.4 0.28-2.57 0.57-5.14 0.72-7.72 0.1-3.74 0.03-7.48-0.33-11.21-0.3-3.53-0.62-7.07-1.39-10.53-0.17-0.67-0.92-2.83-0.87-2.91 1.33-1.84 1.52-2.29 2.72-1.7 1.49 0.93 2.9 1.99 4.25 3.13 2.41 1.98 4.74 4.09 6.69 6.57 2.59 3.29 4.85 6.85 6.83 10.56 1.91 3.83 3.62 7.76 4.77 11.91 0.94 3.4 1.81 6.81 2.64 10.24 0.26 1.12 0.5 2.26 0.8 3.37 0.06 0.21 0.12 0.43 0.19 0.64 0.04 0.12 0.26 0.27 0.16 0.36-0.61 0.59-1.38 0.99-2.07 1.48 0.96-1.53 1-3.57 1.6-5.26 0.75-3.54 1.52-7.08 2.04-10.66 0.62-4.19 0.97-8.41 0.97-12.66-0.01-4.53-0.14-9.06-0.85-13.54-0.55-3.65-1.17-7.33-2.62-10.74-0.71-1.51-1.43-3.25-2.85-4.19l2.26-1.45z"/>
        <path id="path3565" d="m246.86 279.31c-0.55 0.13-1.07 0.35-1.59 0.57 0.93-0.68-1.96 1.06-1.01 0.53 1.65-0.94 0.48-0.23 0.12 0.06-0.55 0.42-1.05 0.9-1.59 1.33-0.54 0.49-1.04 0.69-1.72 0.98 0.66-0.61 1.42-1.08 2.17-1.57 1.25-0.83 2.56-1.57 3.87-2.3 0.63-0.37 1.29-0.69 1.96-1 1.21-0.44-1.2 0.88-1.62 1.08-0.53 0.08-1.84 1.15-2.23 1.2-0.22 0.02 0.35-0.28 0.56-0.33 0.19-0.05-0.35 0.21-0.52 0.32-0.82 0.52-0.62 0.4-1.9 1.15-0.4 0.23-0.27 0-0.02-0.16 1.05-0.64 2.1-1.24 3.19-1.81 1.34-0.73-0.38 0.28-0.8 0.46-0.96 0.45-1.89 0.98-2.83 1.5-0.51 0.41-1.53 0.69-0.35-0.07 0.87-0.54 1.74-1.09 2.61-1.63 0.9-0.46-1.35 0.6-1.68 0.76-0.66 0.33-0.43 0.2-1.03 0.53-0.09 0.05-0.36 0.21-0.27 0.15 0.71-0.52 1.19-0.81 1.89-1.18 0.48-0.17 1.67-1.13-0.27 0.19-0.03 0.02-0.01 0.09-0.04 0.11-0.22 0.17-0.5 0.24-0.75 0.36-0.26 0.25-2.01 0.97-0.84 0.06 0.28-0.32 1.4-0.8 0.32-0.38-0.87 0.46-0.77 0.2-0.16-0.24 0.6-0.37-0.55 0.16-0.65 0.19-0.01-0.03-0.04-0.07-0.02-0.1 0.34-0.45 1.94-1.15 2.66-1.57-0.4 0.27-0.8 0.55-1.2 0.82-0.5 0.33-1.54 0.89 0.99-0.69 0.2-0.13 0.43-0.21 0.65-0.32-0.81 0.48-0.76 0.5-1.5 0.8 0.59-0.53 1.1-0.79 1.76-1.08 0.1-0.05 0.25-0.21 0.33-0.12 0.02 0.04 0 0.09 0 0.13-0.6 0.53 1.19-0.14 1.28-0.17 0.12 0.05 0.57-0.29 0.73-0.14 0.03 0.03-0.01 0.15 0.03 0.14 0.03-0.01 0.05-0.04 0.07-0.06 0.06-0.03 0.12-0.06 0.17-0.09l-1.09 0.77c-0.06 0.03-0.13 0.06-0.19 0.08-0.04-0.01-0.08-0.01-0.12-0.02-0.01-0.03 0.03-0.07 0.01-0.08-0.21-0.08-0.51 0.17-0.7 0.16-0.11 0.03-1.97 0.69-1.38 0.03 0.02 0.01 0.08-0.01 0.08 0.01-0.01 0.09-2.87 1.08 0.12-0.33 0.18-0.07 0.39-0.19 0.57-0.21 0.09-0.01 0.29 0.02 0.13 0.12-0.46 0.28-0.92 0.55-1.39 0.82-0.11 0.06-0.22 0.12-0.34 0.18-1.51 0.74 3.14-2.21-0.1 0.02-0.38 0.22-0.06 0.04-0.57 0.32-0.13 0.07-0.51 0.3-0.38 0.22 1.93-1.26 0.71-0.29 0.5-0.4 0.18-0.06 1.23-0.5 0.74-0.03-0.55 0.41-0.88 0.45 0.06 0.08 1.14-0.42 0.15 0.35-0.23 0.55-1.18 0.87 0.45-0.16 0.75-0.23 0.25-0.13 0.49-0.32 0.77-0.36 0.04-0.01 0.16 0.03 0.12 0.06-0.63 0.45-1.34 0.79-2.01 1.17-0.12 0.06-0.24 0.13-0.36 0.19-0.11 0.05-0.39 0.22-0.31 0.15 0.69-0.59 1.44-1 2.25-1.37 0.54-0.26 1.1-0.57 1.67-0.75 0.2-0.07 0.43-0.1 0.34 0.02-0.06 0.07-0.15 0.1-0.22 0.15-0.87 0.54-1.75 1.08-2.62 1.63-1.09 0.68-0.37 0.17 0.25-0.12 0.94-0.52 1.88-1.05 2.85-1.5 1.36-0.48-0.89 0.9-1.39 1.08-0.4 0.21-3.04 1.69-0.9 0.45-0.12 0.07-0.21 0.19-0.35 0.1-0.08-0.05 0.34-0.18 0.26-0.13-0.27 0.17-0.53 0.34-0.81 0.49-0.15 0.08 0.29-0.19 0.44-0.28 1.45-0.9 2.92-1.8 4.46-2.53 0.13-0.07 0.52-0.29 0.4-0.2-0.28 0.2-0.59 0.36-0.87 0.54s0.31-0.23 0.2-0.02c-0.05 0.1-0.29-0.03-0.3 0.13-0.66 0.31-1.31 0.63-1.94 0.99-0.73 0.41-0.14 0.08-0.88 0.5-0.15 0.09-0.6 0.36-0.45 0.26 1.54-1.08 0.02 0.08-0.28 0.2-0.74 0.48-1.5 0.95-2.16 1.55-2.67 1.49-1.22 0.71-0.66 0.22 0.54-0.43 1.05-0.91 1.6-1.34 0.96-0.79 2.04-1.43 3.16-1.94 0.53-0.23 1.05-0.45 1.61-0.57l-1.11 0.76z" stroke="#c69e6e" stroke-width=".56241" fill="#c69e6e"/>
        <path id="path3567" d="m242.96 280.14c0.68-0.35 0.33-0.18 1.03-0.52l-1.08 0.76c-0.7 0.35-0.35 0.17-1.04 0.52l1.09-0.76z" stroke="#c69e6e" stroke-width=".56241" fill="#c69e6e"/>
        <path id="path3583" d="m431.2 289.65c0.22-0.09 0.57-0.09 0.79 0 0.21 0.09 0.04 0.16-0.4 0.16-0.43 0-0.61-0.07-0.39-0.16z" stroke="#c69e6e" stroke-width=".32027" fill="#ff0"/>
        <path id="path3633" stroke="#000" stroke-width=".56241" d="m269.39 276.91c1.31-1.64 2.78-3.13 4.26-4.61 2.38-2.38 4.91-4.57 7.46-6.73 2.34-2.11 4.91-3.88 7.57-5.49 2.89-1.87 5.99-3.34 9.14-4.69 1.91-0.79 3.86-1.44 5.81-2.1 0.88-0.29 1.76-0.56 2.65-0.82l-1.54 1.07c-0.89 0.26-1.77 0.53-2.64 0.81-1.94 0.66-3.89 1.31-5.79 2.1-2.13 0.91-4.18 1.94-6.25 2.99-0.09 0.05 0.17-0.11 0.25-0.17-2.67 1.61-5.24 3.37-7.57 5.48-2.56 2.16-5.09 4.35-7.46 6.72-1.46 1.46-2.92 2.94-4.21 4.57l-1.68 0.87z"/>
        <path id="path3635" stroke="#000" stroke-width=".56241" d="m274.79 269.06c1.06 0.67 2.04 1.46 3 2.28 0.78 0.69 1.54 1.41 2.23 2.19 0.41 0.44 0.84 0.86 1.26 1.28 0.05 0.05 0.09 0.09 0.14 0.13l-1.62 1-0.13-0.13c-0.43-0.43-0.85-0.85-1.25-1.29-0.69-0.78-1.44-1.51-2.22-2.19-0.95-0.82-1.93-1.61-3.01-2.25l1.6-1.02z"/>
        <path id="path3637" stroke="#000" stroke-width=".56241" d="m279.22 263.09c1.27 0.49 2.39 1.29 3.5 2.08 0.95 0.73 1.87 1.51 2.78 2.3 0.35 0.31 0.69 0.62 1.07 0.86l-1.6 1.01c-0.38-0.26-0.72-0.57-1.07-0.88-0.9-0.78-1.81-1.57-2.76-2.29-1.11-0.8-2.23-1.6-3.51-2.04l1.59-1.04z"/>
        <path id="path3639" stroke="#000" stroke-width=".56241" d="m288.05 257.14c1.12 0.71 2.21 1.49 3.25 2.35 0.9 0.78 1.72 1.64 2.56 2.49l-1.61 0.99c-0.82-0.86-1.64-1.72-2.54-2.49-1.03-0.86-2.12-1.64-3.27-2.33l1.61-1.01z"/>
        <path id="path3641" stroke="#000" stroke-width=".56241" d="m296.88 252.36c1.15 0.94 2.17 2.02 3.21 3.09 1.14 1.08 2.1 2.35 3.14 3.53l-1.6 0.98c-1.03-1.19-1.98-2.45-3.12-3.54-1.04-1.06-2.07-2.15-3.24-3.05l1.61-1.01z"/>
        <path id="path3649" stroke="#000" stroke-width=".56241" d="m315.19 253.36c1.25-0.39 2.57-0.53 3.87-0.63 1.99-0.18 3.96 0.02 5.91 0.41 1.97 0.4 3.83 1.15 5.65 2.02 1.74 0.89 3.45 1.87 5.1 2.95 1.45 0.93 2.8 2.01 4.08 3.18 0.81 0.81 1.6 1.65 2.28 2.58l-1.61 0.97c-0.67-0.92-1.45-1.76-2.26-2.57-1.27-1.17-2.62-2.24-4.06-3.17-1.64-1.08-3.35-2.05-5.1-2.94-1.81-0.86-3.67-1.6-5.63-2-1.95-0.39-3.92-0.57-5.9-0.38-1.31 0.11-2.64 0.24-3.89 0.67l1.56-1.09z"/>
        <path id="path3651" stroke="#000" stroke-width=".56241" d="m319.82 249.24c0.2 1.21 0.17 2.45 0.16 3.67 0 0.73-0.01 1.46-0.02 2.19l-1.64 0.92c0.02-0.73 0.02-1.46 0.03-2.19 0.01-1.21 0.05-2.44-0.16-3.64l1.63-0.95z"/>
        <path id="path3653" stroke="#000" stroke-width=".56241" d="m329.75 250.79c0.17 1.26 0.06 2.54-0.03 3.81-0.06 0.77-0.12 1.54-0.19 2.3l-1.64 0.92c0.07-0.77 0.14-1.54 0.2-2.31 0.09-1.26 0.21-2.53 0.02-3.78l1.64-0.94z"/>
        <path id="path3655" stroke="#000" stroke-width=".56241" d="m337.49 254.84c0 1.24-0.23 2.47-0.41 3.7-0.03 0.19-0.06 0.39-0.09 0.58l-1.64 0.91c0.03-0.2 0.06-0.39 0.09-0.59 0.18-1.21 0.41-2.43 0.4-3.66l1.65-0.94z"/>
        <path id="path3657" stroke="#000" stroke-width=".56241" d="m343.91 258.34c-0.25 1.15-0.6 2.28-0.98 3.39-0.3 0.82-0.56 1.66-0.82 2.5l-1.65 0.89c0.26-0.84 0.52-1.68 0.82-2.5 0.38-1.1 0.74-2.22 0.97-3.37l1.66-0.91z"/>
        <path id="path3671" stroke="#000" stroke-width=".56241" d="m395.64 234.06c0.25 0.39 0.58 0.43 0.99 0.46 0.14 0.12 0.13 0.27 0.12 0.44l-1.18 0.65c0.02-0.12 0.06-0.27-0.06-0.34-0.42-0.03-0.75-0.14-1.02-0.52l1.15-0.69z"/>
        <path id="path3673" stroke="#000" stroke-width=".56241" d="m401.8 235.91c0.23 0.26 0.55 0.06 0.81 0.16 0.01 0.01 0.03 0.02 0.04 0.04l-1.14 0.71c-0.01-0.01-0.02-0.01-0.03-0.02-0.28-0.04-0.57 0.06-0.82-0.18l1.14-0.71z"/>
        <path id="path3675" stroke="#000" stroke-width=".56241" d="m399.76 239.72c0.23 0.22 0.43 0.15 0.44 0.51 0.03 0.18 0.11 0.31 0.29 0.35 0.03 0.01 0.07 0.02 0.11 0.01 0.02-0.01 0.04-0.07 0.05-0.05 0.02 0.04-0.01 0.09-0.01 0.13-0.12 0.12-0.11 0.24-0.06 0.39l-1.15 0.68c-0.07-0.16-0.1-0.31 0.01-0.46 0.26 0.09-0.35 0.07-0.4-0.39 0-0.32-0.23-0.25-0.43-0.48l1.15-0.69z"/>
        <path id="path3677" stroke="#000" stroke-width=".56241" d="m408.82 235.54c0.13 0.34 0.49 0.19 0.7 0.32 0.06 0.1 0.12 0.36 0.28 0.26l-1.11 0.76c-0.17-0.01-0.23-0.15-0.31-0.29-0.27-0.07-0.53-0.07-0.71-0.35l1.15-0.7z"/>
        <path id="path3679" stroke="#000" stroke-width=".56241" d="m405.84 241.26c0.06-0.21 0.01-0.36 0.19-0.5 0.08-0.1 0.06-0.04 0.06-0.16l1.16-0.66c0.03 0.16 0.05 0.08-0.02 0.22-0.2 0.18-0.17 0.13-0.21 0.47l-1.18 0.63z"/>
        <path id="path3681" stroke="#000" stroke-width=".56241" d="m393.49 239.7c0.11-0.08 0.18-0.19 0.26-0.3l1.19-0.62c-0.08 0.11-0.14 0.24-0.26 0.32l-1.19 0.6z"/>
        <path id="path3683" stroke="#000" stroke-width=".56241" d="m399.4 247.42c0.42-0.64 0.48-0.45 1.56-0.98 0.62-0.31-0.55 0.32-0.82 0.48 0.1-0.09 0.17-0.22 0.27-0.32l1.19-0.6c-0.13 0.07-0.17 0.22-0.27 0.33-0.44 0.26-0.86 0.54-1.31 0.8-0.79 0.46 1.46-1.31 0.57-0.32l-1.19 0.61z"/>
        <path id="path3685" stroke="#000" stroke-width=".56241" d="m405.83 243.93c0.22-0.07 0.11-0.03 0.3-0.13l-1.09 0.77c-0.2 0.09-0.09 0.05-0.32 0.12l1.11-0.76z"/>
        <path id="path3695" stroke="#000" stroke-width=".56241" d="m346.41 379.82c0.83-0.9 1.52-1.94 2.26-2.93 1.25-1.74 2.43-3.53 3.56-5.35 1.2-1.9 2.43-3.78 3.57-5.71 1.08-1.87 2.09-3.79 3.09-5.7 1.05-1.98 2.05-4 2.95-6.06 1.01-2.3 1.81-4.68 2.5-7.1 0.61-2.24 1.16-4.49 1.71-6.74l0.37-0.21c-0.54 2.25-1.1 4.51-1.7 6.75-0.69 2.42-1.49 4.8-2.5 7.1-0.91 2.06-1.9 4.07-2.95 6.06-1 1.91-2.01 3.83-3.09 5.7-1.14 1.93-2.37 3.81-3.57 5.71-1.13 1.82-2.31 3.61-3.56 5.35-0.73 0.99-1.42 2.02-2.24 2.93l-0.4 0.2z"/>
      </g>
    </g>
  </g>
  <metadata>
    <rdf:RDF>
      <cc:Work>
        <dc:format>image/svg+xml</dc:format>
        <dc:type rdf:resource="http://purl.org/dc/dcmitype/StillImage"/>
        <cc:license rdf:resource="http://creativecommons.org/licenses/publicdomain/"/>
        <dc:publisher>
          <cc:Agent rdf:about="http://openclipart.org/">
            <dc:title>Openclipart</dc:title>
          </cc:Agent>
        </dc:publisher>
        <dc:title>Angolino</dc:title>
        <dc:date>2008-09-18T21:14:47</dc:date>
        <dc:description>The Italian hero for the Lappian Monkeys comic; a comic dedicated to the Lappis student accommodation in Stockholm.</dc:description>
        <dc:source>http://openclipart.org/detail/19550/angolino-by-gounis_vn-19550</dc:source>
        <dc:creator>
          <cc:Agent>
            <dc:title>gounis_VN</dc:title>
          </cc:Agent>
        </dc:creator>
        <dc:subject>
          <rdf:Bag>
            <rdf:li>cartoon</rdf:li>
            <rdf:li>clip art</rdf:li>
            <rdf:li>clipart</rdf:li>
            <rdf:li>comic</rdf:li>
            <rdf:li>giuseppe calcione</rdf:li>
            <rdf:li>image</rdf:li>
            <rdf:li>italian</rdf:li>
            <rdf:li>lappis</rdf:li>
            <rdf:li>media</rdf:li>
            <rdf:li>png</rdf:li>
            <rdf:li>public domain</rdf:li>
            <rdf:li>scream theory</rdf:li>
            <rdf:li>svg</rdf:li>
            <rdf:li>uspto</rdf:li>
          </rdf:Bag>
        </dc:subject>
      </cc:Work>
      <cc:License rdf:about="http://creativecommons.org/licenses/publicdomain/">
        <cc:permits rdf:resource="http://creativecommons.org/ns#Reproduction"/>
        <cc:permits rdf:resource="http://creativecommons.org/ns#Distribution"/>
        <cc:permits rdf:resource="http://creativecommons.org/ns#DerivativeWorks"/>
      </cc:License>
    </rdf:RDF>
  </metadata>
</svg>
