<?xml version="1.0" encoding="utf-8"?>

<!DOCTYPE svg PUBLIC "-//W3C//DTD SVG 1.1//EN" "http://www.w3.org/Graphics/SVG/1.1/DTD/svg11.dtd">
<svg version="1.1" id="Layer_1" xmlns="http://www.w3.org/2000/svg" xmlns:xlink="http://www.w3.org/1999/xlink" x="0px" y="0px"
	 viewBox="-28 -47.2408 1194 2014.4816" enable-background="new -28 -47.2408 1194 2014.4816" xml:space="preserve">
<g>
	<path fill="#646767" stroke="#646767" stroke-width="0.2" d="M563.53,0h18.92c7.81,0.78,15.69,0.28,23.52,0.7
		c111.59,4.34,221.7,29.87,325.91,69.41c3.29,1.35,6.91,2.13,9.88,4.17c0.57,10.88,0.05,21.82,0.23,32.72
		c0.03,48.61-0.07,97.21,0.04,145.82c-0.17,28.36,0.11,56.73-0.13,85.1l-0.79,0.05c-1.05-0.89-2.06-1.8-3.1-2.66
		c0.59-6.09,0.24-12.21,0.32-18.31c0-51,0-102,0-153c-0.14-29.27,0.27-58.55-0.2-87.81c-40.46-15.21-81.49-29.03-123.35-39.89
		C730.81,14.13,643.92,2.32,557.01,3.82C446.28,5.4,336.04,29.5,234.44,73.48c-2.33,1.03-4.73,1.89-7.13,2.74l-0.79,0.3
		c-0.19,91.49,0.03,183-0.1,274.49l0.8-0.23c17.36-6.21,34.58-12.87,52.19-18.35c54.6-17.82,110.84-30.56,167.76-38.21
		c20.27-2.51,40.58-5.02,60.99-5.98c-1.62,1.37-3.26,2.72-4.89,4.07c-5.92-0.17-11.79,0.65-17.66,1.23
		c-70.08,6.38-139.4,20.82-206.28,42.71c-8.3,2.62-16.59,5.31-24.61,8.7c-8.09,2.48-16.08,5.41-23.77,8.92
		c-2.23,0.55-4.5,0.91-6.78,1.21c-0.11-2.02-0.2-4.04-0.23-6.06c-0.03-33.08,0.03-66.15-0.03-99.22
		c0.17-58.57-0.1-117.13,0.13-175.69c94.36-42.17,196.47-67.18,299.7-72.7C536.97,0.13,550.29,0.89,563.53,0z"/>
	<path fill="#FFFFFF" stroke="#FFFFFF" stroke-width="0.2" d="M234.44,73.48C336.04,29.5,446.28,5.4,557.01,3.82
		c86.91-1.5,173.8,10.31,257.77,32.48c41.86,10.86,82.89,24.68,123.35,39.89c0.47,29.26,0.06,58.54,0.2,87.81c0,51,0,102,0,153
		c-0.08,6.1,0.27,12.22-0.32,18.31c-16.82-12.8-38.12-16.62-58.24-21.13c-25.69-5.07-52.7-8.86-78.42-1.97
		c-6.41-1.69-12.89-3.19-19.45-4.19c-11.31-12.19-25.56-21.15-40.16-28.86c-19.49-10.11-40.04-18.28-61.4-23.45
		c-36.21-8.91-74.4301-7.57-110.59,0.91c-8.71,1.83-17.45,3.89-25.62,7.53c-13.32,5.81-24.95,14.74-35.97,24.09
		c-20.41,0.96-40.72,3.47-60.99,5.98c-56.92,7.65-113.16,20.39-167.76,38.21c-17.61,5.48-34.83,12.14-52.19,18.35
		c0.27-91.52,0.1-183.04,0.09-274.56C229.71,75.37,232.11,74.51,234.44,73.48 M551.73,47.08c-0.25,24.53-0.17,49.08-0.04,73.61
		c-26.22,0-52.44-0.13-78.66,0.06c0.13,17.08,0.08,34.15,0.03,51.22c26.21,0.19,52.44-0.17,78.65,0.19
		c-0.23,24.39-0.13,48.79-0.05,73.18c20.8701,0.13,41.7401,0.14,62.61,0c0.08-24.4,0.14-48.81-0.03-73.21
		c26.21-0.31,52.43,0.04,78.64-0.17c-0.03-17.06-0.16-34.13,0.06-51.19c-26.22-0.22-52.44-0.09-78.66-0.06
		c0.05-24.54,0.15-49.09-0.05-73.63C593.4,47.19,572.56,47.19,551.73,47.08z"/>
	<path fill="#D40000" stroke="#D40000" stroke-width="0.2" d="M551.73,47.08c20.83,0.11,41.67,0.11,62.5,0
		c0.2,24.54,0.1,49.09,0.05,73.63c26.22-0.03,52.4399-0.16,78.66,0.06c-0.22,17.06-0.09,34.13-0.06,51.19
		c-26.21,0.21-52.43-0.14-78.64,0.17c0.17,24.4,0.11,48.81,0.03,73.21c-20.87,0.14-41.74,0.13-62.61,0
		c-0.08-24.39-0.18-48.79,0.05-73.18c-26.21-0.36-52.44,0-78.65-0.19c0.05-17.07,0.1-34.14-0.03-51.22
		c26.22-0.19,52.44-0.06,78.66-0.06C551.56,96.16,551.48,71.61,551.73,47.08z"/>
	<path stroke="#000000" stroke-width="0.2" d="M226.52,76.52l0.79-0.3c0.01,91.52,0.18,183.04-0.09,274.56l-0.8,0.23
		C226.55,259.52,226.33,168.01,226.52,76.52z"/>
	<path fill="#AA0000" stroke="#AA0000" stroke-width="0.2" d="M182.48,283.47c12.87-12.3,26.51-23.93,41.43-33.67
		c0.06,33.07,0,66.14,0.03,99.22c0.03,2.02,0.12,4.04,0.23,6.06c2.28-0.3,4.55-0.66,6.78-1.21c-4.36,3.93-9.79,6.29-14.76,9.3
		c-14.8,8.72-30.38,16.35-43.75,27.29c-18.13,15.41-31.11,35.7-42.88,56.12c-8.41,13.61-12.75,29.21-16.29,44.68
		c-9.06,41.62-11.77,84.28-14.17,126.71c-0.13,5.48-0.13,10.97-0.6,16.44c-0.71,8.6-0.14,17.26-0.89,25.86
		c-1.53-1.31-3.04-2.64-4.66-3.82c0-7.63-1.67-15.12-2.43-22.68c-6.48-59.31-9.7-119.51-1.4-178.81
		c4.63-31.11,12.7-62.43,29.42-89.39C137.06,336.19,157.55,307.78,182.48,283.47z"/>
	<path fill="#D40000" stroke="#D40000" stroke-width="0.2" d="M569.75,256.62c36.16-8.48,74.38-9.82,110.59-0.91
		c21.36,5.17,41.91,13.34,61.4,23.45c14.6,7.71,28.85,16.67,40.16,28.86c1.11,1.3,2.15,2.66,3.15,4.07
		c1.35,1.95,2.66,3.93,4.01,5.89c2.64-1.29,5.32-2.51,8-3.74c1.43-0.65,2.84-1.38,4.29-2.03c25.72-6.89,52.73-3.1,78.42,1.97
		c20.12,4.51,41.42,8.33,58.24,21.13c1.04,0.86,2.05,1.77,3.1,2.66c10.92,9.15,17.97,22.08,22.51,35.41
		c5.92,16.38,9.09,33.6,14.94,50.01c4.38,12.65,10.12,25,18.37,35.62c6.75,9.5,15.76,17.06,24.85,24.22
		c21.1,16.32,39.59,36.61,51.13,60.86c5.85,13.2,10.02,27.43,9.98,41.97c-1.1801,22.6-3.4501,45.14-6.79,67.52
		c-5.88,37.94-14.83,75.91-32.01,110.46c-4.4099,8.57-9.36,16.89-15.1899,24.58c-2.42,3.01-5.04,5.86-7.86,8.49
		c-1.39-49.14-5.24-98.63-17.83-146.32c-4.75-17.42-10.67-34.65-19.37-50.53c-11.3701-21.82-24.63-43.5-44.17-58.98
		c-10.38-8.17-21.86-14.8-32.86-22.08c-13.76-8.62-26.91-18.21-39.41-28.56c-12.17-10.19-23.69-21.18-36.52-30.54
		c-7.61-5.54-15.51-10.66-23.66-15.35c-7.3-4.44-15.08-8.65-20.49-15.45c-5.54-6.91-7.95-15.64-9.94-24.1
		c-2.87-13.32-4.39-26.88-5.82-40.41c-23.92,21.36-48.8,41.75-75.39,59.74c-32.45,22.01-67.12,40.8-103.45,55.57
		c-51.49,21.14-106.04,34.08-161.08,41.7c-22.73,2.07-45.42-1.61-67.81-5.1c-25.29-3.76-50.55-8.98-76.22-8.87
		c-15.95-0.02-32.91,2.38-46.03,12.15c-12.6,10.03-23.31,22.21-33.01,35.01c-22.42,30-39.4,63.56-55.85,97.07
		c-7.26,15.19-14.7,30.3-21.89,45.52c-4.98,10.08-10.06,20.12-15.84,29.78c-4.09,6.98-8.54,14.01-14.85,19.2
		c-3.43,2.84-8.89,4.57-12.61,1.24c-0.22-2.63,0.63-5.18,1.1-7.73c5.05-26.33,8.84-52.97,9.57-79.8c0.75-8.6,0.18-17.26,0.89-25.86
		c0.47-5.47,0.47-10.96,0.6-16.44c2.4-42.43,5.11-85.09,14.17-126.71c3.54-15.47,7.88-31.07,16.29-44.68
		c11.77-20.42,24.75-40.71,42.88-56.12c13.37-10.94,28.95-18.57,43.75-27.29c4.97-3.01,10.4-5.37,14.76-9.3
		c7.69-3.51,15.68-6.44,23.77-8.92c6.89,0.06,13.53-2,20.34-2.66c10.92-1.39,21.94-1.52,32.93-2c22.34,0.55,44.67,1.6,67,2.51
		c16.46,0.31,33.07-0.23,49.23-3.62c18.53-4.77,35.98-13.33,51.5-24.47c9.6-6.94,18.56-14.7,27.55-22.4
		c1.63-1.35,3.27-2.7,4.89-4.07c11.02-9.35,22.65-18.28,35.97-24.09C552.3,260.51,561.04,258.45,569.75,256.62 M590.79,286.76
		C565.53,292.78,541.03,302,518,314c-29.65,15.3-56.99,34.58-86.06,50.9c-8.28,4.5-17.61,6.41-26.74,8.34
		c-9.35,1.42-18.76,2.59-28.2,3.06c-9.44,1.1-18.96,0.44-28.42,1.2c-15.16,0.9-30.37,0.02-45.52,1.16
		c-18.95,0.6-38.18,1.51-56.45,6.99c-12.28,4.47-23.76,10.95-34.32,18.61c-11.84,8.68-22,19.4-31.39,30.63
		c-25.32,32.42-41.02,71.29-51.15,110.89c-6.14,24.0699-10.63,48.61-12.6,73.3799c2.68-2.6,3.67-6.34,5.51-9.5
		c9.75-18.96,20.08-37.6299,31.19-55.83c17.25-28.03,35.96-55.41,58.62-79.37c17.75-19.46,40.51-34.67,65.89-42.11
		c17.74-5.23,36.3-6.67,54.69-7.56c10.6-1.16,21.29-0.42,31.89-1.48c22.38-0.46,44.73-1.68,67.07-2.95
		c10.38-0.26,19.74-5.17,28.96-9.4c37.68-20.06,72.26-45.27,106.83-70.17c10.98-7.85,24.5-10.58,37.42-13.5
		c29.57-5.88,59.7401-7.62,89.77-9.21c11.75-0.13,23.5-0.67,35.23-1.1c-2.64-3.2-6.37-5.15-9.61-7.63
		c-6.97-5.17-14.4-9.67-21.8-14.17c-12.12-6.78-24.79-13.45-38.81-14.96C636.79,278.14,613.32,281.03,590.79,286.76 M804.41,326.44
		c-6.23,2.76-14.06,5.58-15.93,12.96c-5.82,20.14-9.77,42.32-2.5,62.63c2.91,8.57,9.68,14.87,16.55,20.38
		c18.06,15.43,38.55,27.6,58.04,41.07c11.41,7.74,21.95,16.62,32.63,25.31c20.63,16.83,45.15,28.18,65.24,45.72
		c10.11,8.56,18.9,18.59,26.9,29.13c7.37,9,12.52,19.54,16.69,30.34c7.33,17.88,12.11,36.65,16.52,55.43
		c5.45,25.26,9.64,50.79,12.83,76.4301c1.55,10.41,2.11,20.95,3.79,31.33c2.11-2.61,2.7799-5.98,3.96-9.05
		c9.35-25.15,17.08-50.94,22.77-77.18c4.88-23.29,8.24-47.07,7.2899-70.92c-0.2999-18.2-4.6899-36.47-14.0199-52.2
		c-10.63-18.95-26.14-34.4-41.53-49.47c-11.05-9.62-21-20.39-30.77-31.26c-7.01-8.48-13.81-17.26-18.78-27.13
		c-8.45-17.56-11.8701-36.89-17.6201-55.38c-4.56-16.39-11.59-32.99-24.77-44.32c-16.8-14.23-39.16-19.41-60.63-21.08
		C842,318.38,822.45,319.8,804.41,326.44 M691.99,342.02c-26.15,1.45-52.38,3.08-78.2,7.7c-13.59,2.33-26.99,6.3-39.12,12.98
		c-35.72,19.47-64.7,49.18-100.72,68.17c-17.2,9.04-36.73,12.38-55.96,13.14c-16.66,0.28-33.35,0.27-49.97-0.89
		c-15.66,0.01-31.31-1.95-46.95-0.44c-10.33,0.19-20.6,1.56-30.68,3.74c-15.77,3.61-30.32,11.27-43.41,20.63
		c-13.16,9.63-25.21,20.77-36.02,32.97c-19.45,21.01-35.77,44.72-50.88,68.98c-0.51,1.04-0.94,2.12-1.28,3.24
		c3.18-2.05,4.54-5.75,6.79-8.63c12.67-17.41,26.32-34.26,42.35-48.7c13.67-12.2,28.69-23.21,45.63-30.4
		c15.16-6.74,31.9-10.1,48.49-9.28c14.29,0.74,27.81,5.91,41.94,7.72c18.54,2.86,37.37,2.6,56.07,1.89
		c39.63-3.12,79.35-10.34,116.24-25.54c17.4-6.51,34.49-13.87,51.37-21.62c19.68-9.56,39.47-19.55,56.2-33.85
		c5.82-4.48,9.88-10.76,15.42-15.56c9.73-8.29,20.63-15.09,31.89-21.09c13.86-7.5,28.17-14.11,42.65-20.3c4.11-1.85,8.6-3,12.3-5.67
		C714.74,340.7,703.38,342.03,691.99,342.02z"/>
	<path fill="#AA0000" stroke="#AA0000" stroke-width="0.2" d="M942.03,252.82c6.7,2.04,13.11,4.87,19.54,7.63
		c24.65,10.82,48.32,25.47,65.59,46.46c10.58,12.62,18.38,27.35,24.1799,42.72c8.3301,22.11,12.89,45.4,17.1801,68.57
		c4.71,25.64,6.37,51.76,6.47,77.8c0.1,16.06-1.23,32.07-2.08,48.09c-11.54-24.25-30.03-44.54-51.13-60.86
		c-9.09-7.16-18.1-14.72-24.85-24.22c-8.25-10.62-13.99-22.97-18.37-35.62c-5.85-16.41-9.02-33.63-14.94-50.01
		c-4.54-13.33-11.59-26.26-22.51-35.41l0.79-0.05C942.14,309.55,941.86,281.18,942.03,252.82z"/>
	<path fill="#AA0000" stroke="#AA0000" stroke-width="0.2" d="M590.79,286.76c22.53-5.73,46-8.62,69.21-6.54
		c14.02,1.51,26.69,8.18,38.81,14.96c7.4,4.5,14.83,9,21.8,14.17c3.24,2.48,6.97,4.43,9.61,7.63c-11.73,0.43-23.48,0.97-35.23,1.1
		c-30.03,1.59-60.2,3.33-89.77,9.21c-12.92,2.92-26.4399,5.65-37.42,13.5c-34.57,24.9-69.15,50.11-106.83,70.17
		c-9.22,4.23-18.58,9.14-28.96,9.4c-22.34,1.27-44.69,2.49-67.07,2.95c-10.6,1.06-21.29,0.32-31.89,1.48
		c-18.39,0.89-36.95,2.33-54.69,7.56c-25.38,7.44-48.14,22.65-65.89,42.11c-22.66,23.96-41.37,51.34-58.62,79.37
		c-11.11,18.2-21.44,36.87-31.19,55.83c-1.84,3.16-2.83,6.9-5.51,9.5c1.97-24.77,6.46-49.31,12.6-73.3799
		c10.13-39.6,25.83-78.47,51.15-110.89c9.39-11.23,19.55-21.95,31.39-30.63c10.56-7.66,22.04-14.14,34.32-18.61
		c18.27-5.48,37.5-6.39,56.45-6.99c15.15-1.14,30.36-0.26,45.52-1.16c9.46-0.76,18.98-0.1,28.42-1.2c9.44-0.47,18.85-1.64,28.2-3.06
		c9.13-1.93,18.46-3.84,26.74-8.34c29.07-16.32,56.41-35.6,86.06-50.9C541.03,302,565.53,292.78,590.79,286.76z"/>
	<path fill="#AA0000" stroke="#AA0000" stroke-width="0.2" d="M485.61,293.54c5.87-0.58,11.74-1.4,17.66-1.23
		c-8.99,7.7-17.95,15.46-27.55,22.4c-15.52,11.14-32.97,19.7-51.5,24.47c-16.16,3.39-32.77,3.93-49.23,3.62
		c-22.33-0.91-44.66-1.96-67-2.51c-10.99,0.48-22.01,0.61-32.93,2c-6.81,0.66-13.45,2.72-20.34,2.66c8.02-3.39,16.31-6.08,24.61-8.7
		C346.21,314.36,415.53,299.92,485.61,293.54z"/>
	<path fill="#636969" stroke="#636969" stroke-width="0.2" d="M781.9,308.02c6.56,1,13.04,2.5,19.45,4.19
		c-1.45,0.65-2.86,1.38-4.29,2.03c-4.1-0.1-8.07-1.18-12.01-2.15C784.05,310.68,783.01,309.32,781.9,308.02z"/>
	<path fill="#AC0101" stroke="#AC0101" stroke-width="0.2" d="M785.05,312.09c3.94,0.97,7.91,2.05,12.01,2.15
		c-2.68,1.23-5.36,2.45-8,3.74C787.71,316.02,786.4,314.04,785.05,312.09z"/>
	<path fill="#AA0000" stroke="#AA0000" stroke-width="0.2" d="M804.41,326.44c18.04-6.64,37.59-8.06,56.66-7.26
		c21.47,1.67,43.83,6.85,60.63,21.08c13.18,11.33,20.21,27.93,24.77,44.32c5.75,18.49,9.17,37.82,17.6201,55.38
		c4.97,9.87,11.77,18.65,18.78,27.13c9.77,10.87,19.72,21.64,30.77,31.26c15.39,15.07,30.9,30.52,41.53,49.47
		c9.33,15.73,13.72,34,14.0199,52.2c0.9501,23.85-2.4099,47.63-7.2899,70.92c-5.6901,26.24-13.42,52.03-22.77,77.18
		c-1.1801,3.07-1.85,6.44-3.96,9.05c-1.6801-10.38-2.24-20.92-3.79-31.33c-3.1901-25.64-7.38-51.17-12.83-76.4301
		c-4.41-18.78-9.19-37.55-16.52-55.43c-4.17-10.8-9.32-21.34-16.69-30.34c-8-10.54-16.79-20.57-26.9-29.13
		c-20.09-17.54-44.61-28.89-65.24-45.72c-10.68-8.69-21.22-17.57-32.63-25.31c-19.49-13.47-39.98-25.64-58.04-41.07
		c-6.8701-5.51-13.64-11.81-16.55-20.38c-7.27-20.31-3.32-42.49,2.5-62.63C790.35,332.02,798.18,329.2,804.41,326.44 M818.76,358.79
		c-1.64,0.78-0.93,2.81-0.86,4.2c5.11,31.15,24.06,59.45,50.27,76.86c4.8,3.18,9.65,6.28,14.42,9.5c11.59,7.88,21.37,18,31.11,28
		c6.77,8.16,14.52,15.43,21.96,22.97c5.89,6.05,12.9301,11.03,20.78,14.2c17,7.34,31.84,19.48,42.18,34.87
		c7.3,11.09,14.92,22,21.51,33.54c15.1,27.98,21.8199,59.77,24.1,91.27c0.54-0.82,1-1.67,1.4-2.56
		c7.5699-24.83,9.9399-51.36,5.79-77.03c-3.92-20.84-12-41.64-27.05-57.01c-5.34-6.96-12.51-12.11-18.55-18.39
		c-4.96-5.09-10.64-9.37-15.67-14.38c-5.6-4.35-10.2401-9.75-15.7401-14.21c-6.42-5.93-12.61-12.15-18.0699-18.99
		c-9.52-11.08-14.39-25.22-17.7401-39.22c-4.0099-14.97-6.56-30.52-13.44-44.55c-3.93-8.5-10.4-15.58-17.79-21.23
		c-13.07-10.57-29.53-17-46.36-17.63C846.4,348.54,831.69,351.99,818.76,358.79z"/>
	<path fill="#AA0000" stroke="#AA0000" stroke-width="0.2" d="M691.99,342.02c11.39,0.01,22.75-1.32,34.15-0.81
		c-3.7,2.67-8.19,3.82-12.3,5.67c-14.48,6.19-28.79,12.8-42.65,20.3c-11.26,6-22.16,12.8-31.89,21.09
		c-5.54,4.8-9.6,11.08-15.42,15.56c-16.73,14.3-36.52,24.29-56.2,33.85c-16.88,7.75-33.97,15.11-51.37,21.62
		c-36.89,15.2-76.61,22.42-116.24,25.54c-18.7,0.71-37.53,0.97-56.07-1.89c-14.13-1.81-27.65-6.98-41.94-7.72
		c-16.59-0.82-33.33,2.54-48.49,9.28c-16.94,7.19-31.96,18.2-45.63,30.4c-16.03,14.44-29.68,31.29-42.35,48.7
		c-2.25,2.88-3.61,6.58-6.79,8.63c0.34-1.12,0.77-2.2,1.28-3.24c15.11-24.26,31.43-47.97,50.88-68.98
		c10.81-12.2,22.86-23.34,36.02-32.97c13.09-9.36,27.64-17.02,43.41-20.63c10.08-2.18,20.35-3.55,30.68-3.74
		c15.64-1.51,31.29,0.45,46.95,0.44c16.62,1.16,33.31,1.17,49.97,0.89c19.23-0.76,38.76-4.1,55.96-13.14
		c36.02-18.99,65-48.7,100.72-68.17c12.13-6.68,25.53-10.65,39.12-12.98C639.61,345.1,665.84,343.47,691.99,342.02z"/>
	<path fill="#D40000" stroke="#D40000" stroke-width="0.2" d="M818.76,358.79c12.93-6.8,27.64-10.25,42.25-9.79
		c16.83,0.63,33.29,7.06,46.36,17.63c7.39,5.65,13.86,12.73,17.79,21.23c6.88,14.03,9.4301,29.58,13.44,44.55
		c3.35,14,8.22,28.14,17.7401,39.22c5.46,6.84,11.65,13.06,18.0699,18.99c5.5,4.46,10.14,9.86,15.7401,14.21
		c5.03,5.01,10.71,9.29,15.67,14.38c6.04,6.28,13.21,11.43,18.55,18.39c15.05,15.37,23.13,36.17,27.05,57.01
		c4.1499,25.67,1.7799,52.2-5.79,77.03c-0.4,0.89-0.86,1.74-1.4,2.56c-2.28-31.5-9-63.29-24.1-91.27
		c-6.59-11.54-14.21-22.45-21.51-33.54c-10.34-15.39-25.18-27.53-42.18-34.87c-7.85-3.17-14.89-8.15-20.78-14.2
		c-7.44-7.54-15.19-14.81-21.96-22.97c-9.74-10-19.52-20.12-31.11-28c-4.77-3.22-9.6201-6.32-14.42-9.5
		c-26.21-17.41-45.16-45.71-50.27-76.86C817.83,361.6,817.12,359.57,818.76,358.79z"/>
	<path fill="#D89A72" stroke="#D89A72" stroke-width="0.2" d="M695.58,424.53c26.59-17.99,51.47-38.38,75.39-59.74
		c1.4301,13.53,2.95,27.09,5.82,40.41c1.9901,8.46,4.4,17.19,9.94,24.1c5.41,6.8,13.19,11.01,20.49,15.45
		c8.15,4.69,16.05,9.81,23.66,15.35c12.83,9.36,24.35,20.35,36.52,30.54c12.5,10.35,25.65,19.94,39.41,28.56
		c11,7.28,22.48,13.91,32.86,22.08c19.54,15.48,32.8,37.16,44.17,58.98c8.7,15.88,14.62,33.11,19.37,50.53
		c12.59,47.69,16.44,97.18,17.83,146.32c2.82-2.63,5.44-5.48,7.86-8.49c1.88,4.54,1.4299,9.55,1.85,14.35
		c0.5,27.35,0.27,54.71,0.51,82.07c0.35,6.26-0.09,12.52-0.28,18.79c-2.1799,20.1-8.55,39.46-15.89,58.21
		c-7.35,18.65-16.32,36.6-25.6,54.35c-13.98,27.36-30.34,53.5599-49.4,77.67l-0.03-0.6101c-0.56,0.03-1.68,0.1001-2.24,0.14
		c4.07-9.26,9.49-17.8199,13.85-26.9299c8.3-15.39,16.54-30.8101,24.81-46.21c4.45-7.67,7.93-15.85,12.51-23.45
		c4.48-9.72,9.38-19.31,12.36-29.63c5.86-19.3,6.89-39.57,9.4-59.46c5.7-53.71,6.07-108.08-1.06-161.67
		c-5.68-41.93-16.1-83.34-32.52-122.39c-9.39-21.62-19.98-42.93-34.12-61.88c-16.81-22.6-39.34-40.21-63.22-54.81
		c-10.48-6.13-20.7-12.68-31.14-18.86c-21.19-12.59-41.91-26.22-60.25-42.77c-7.07-5.44-12.11-12.99-16.11-20.86
		c-3.69-6.92-6.71-14.18-9.33-21.57c-0.67-1.97-1.65-3.8-2.78-5.53c-10.96,14.1-23.04,27.35-36.14,39.49
		c-30.66,28.36-65.81,52.08-104.11,68.85c-45.48,20.12-95.24,30.58-144.97,30.22c-10.35-0.1-20.73,0-31.02-1.21
		c-23.66-1.66-46.91-6.8-70.57-8.41c-34.69-2.33-70.27,0.57-102.99,12.96c-17.45,7.02-34.31,16.02-48.63,28.33
		c-14.9,11.85-26.91,26.93-36.94,43.02c-2.55,4.27-5.15,8.53-7.05,13.14c-0.15,0.29-0.45,0.86-0.6,1.15
		c-5.11,10.2-9.24,20.91-12.13,31.96c-5.06,21.49-9.11,43.21-13.1,64.93c-8.7,45.67-16.47,91.5-24.68,137.25
		c-1.93,10.82-3.81,21.76-3.22,32.8c1.5,29.53,9.81,58.24,20.09,85.81c11.97,31.22,26.5,61.46,43.96,89.98
		c12.55,20.4701,26.12,40.3,40.59,59.4601c8.07,10.8999,16.83,21.2799,24.75,32.2899c1.98,2.29,4.64,3.86,6.69,6.1
		c-0.47,0.2201-1.41,0.6801-1.88,0.91c-51.44-45.83-95.02-101.0499-124.4-163.54c-14.48-30.87-26.14-63.28-32.05-96.94
		c-3.05,2.83-6.06,5.76-9.61,7.98c-0.29-0.54-0.87-1.62-1.16-2.15c17.73-35.38,26.76-74.39,32.46-113.34
		c2.81-20.75,4.79-41.62,5.81-62.53c1.06-9,0.45-18.08,1.39-27.09c0.06-3.79,1.06-7.79-0.47-11.41
		c7.19-15.22,14.63-30.33,21.89-45.52c16.45-33.51,33.43-67.07,55.85-97.07c9.7-12.8,20.41-24.98,33.01-35.01
		c13.12-9.77,30.08-12.17,46.03-12.15c25.67-0.11,50.93,5.11,76.22,8.87c22.39,3.49,45.08,7.17,67.81,5.1
		c55.04-7.62,109.59-20.56,161.08-41.7C628.46,465.33,663.13,446.54,695.58,424.53z"/>
	<path fill="#DEAA87" stroke="#DEAA87" stroke-width="0.2" d="M724.08,437.06c13.1-12.14,25.18-25.39,36.14-39.49
		c1.13,1.73,2.11,3.56,2.78,5.53c2.62,7.39,5.64,14.65,9.33,21.57c4,7.87,9.04,15.42,16.11,20.86
		c18.34,16.55,39.06,30.18,60.25,42.77c10.44,6.18,20.66,12.73,31.14,18.86c23.88,14.6,46.41,32.21,63.22,54.81
		c14.14,18.95,24.73,40.26,34.12,61.88c16.42,39.05,26.84,80.46,32.52,122.39c7.13,53.59,6.76,107.96,1.06,161.67
		c-2.51,19.89-3.54,40.16-9.4,59.46c-2.98,10.32-7.88,19.91-12.36,29.63c-4.58,7.6-8.06,15.78-12.51,23.45
		c-8.27,15.4-16.51,30.82-24.81,46.21c-4.36,9.11-9.78,17.6699-13.85,26.9299c0.56-0.0399,1.68-0.11,2.24-0.14l0.03,0.6101
		c-64.31,83.08-157.01,143.72-259,169.09c-0.31,0.95-0.6,1.9299-0.8701,2.9199c-1.2-0.9399-2.29-2.62-4-1.7999
		c-68.37,16.2999-140.37,17.3099-209.13,2.7c-3.68-0.6699-7.4-2.24-11.15-1.15c-0.59-1.08-1.66-1.6899-2.81-1.9099
		c-66.64-16.1-129.58-47.14-183.14-89.9c-3.36-2.6901-6.9-5.17-9.84-8.3201c-2.05-2.24-4.71-3.8099-6.69-6.1
		c-7.92-11.01-16.68-21.39-24.75-32.2899c-14.47-19.16-28.04-38.99-40.59-59.4601c-17.46-28.52-31.99-58.7599-43.96-89.98
		c-10.28-27.57-18.59-56.28-20.09-85.81c-0.59-11.04,1.29-21.98,3.22-32.8c8.21-45.75,15.98-91.58,24.68-137.25
		c3.99-21.72,8.04-43.44,13.1-64.93c2.89-11.05,7.02-21.76,12.13-31.96c9.52-1.65,19-3.63,28.64-4.52c0.53,0.02,1.58,0.06,2.11,0.08
		c-4.54,12.4-8.97,24.89-11.49,37.89c-1.29,5.26-1.63,10.72-3.25,15.9c-2.89-2.65-5.4-5.67-8.24-8.36c2.64,4.66,6.2,8.72,9.11,13.22
		c-1.91,3.92-1.76,8.38-2,12.63c-0.27,17.91,2.58,36.45,11.98,52c2.53,4.88,6.42,8.79,9.83,13.03c4.61,6.52,11.67,10.7,18.41,14.71
		c5.03,3.13,10.4,5.66,15.7,8.3c4.77,2.26,9.71,4.45,15.03,4.9c3.35,0.26,6.76,1.47,10.09,0.48c2.26,0.63,4.53,1.2,6.78,1.87
		c9.85,3.1,20.04,4.86,30.23,6.37c-1.11,0.3-2.22,0.64-3.31,1c4.62,0.8,9.28,1.39,13.96,1.74c-0.11,0.8-0.22,1.62-0.32,2.44
		c5.1,1.18,10.24,2.55,15.53,2.2401c6.72-0.22,13.4,1.62,20.1,0.3c13.44-0.3,26.94-0.35,40.3-2.05c15.29-2.03,31.09-0.38,46.03-4.79
		c9.27-2.8,18.23-8.51,22.81-17.3c5.14-9.12,5.41-20.05,3.54-30.11c-1.24-14.68-2.18-29.39-3.91-44.03
		c-1.08-12.53-4.29-24.72-7.95-36.7c1.78-0.33,3.55-0.73,5.28-1.29c7.64,0.02,15.75,0.54,22.75-3.11c3.29-1.65,6.06-5.06,5.49-8.93
		c-0.62-5.68-5.29-9.77-9.78-12.73c-6.69-4.49-14.58-6.56-22.22-8.81c-33.83-10.08-67.94-19.38-102.64-25.96
		c-16.49-2.72-33.06-5.31-49.8-5.54c-21.99-0.87-43.95,2.28-65.19,7.8c-21.06,5.17-41.7,12.0699-63,16.18
		c1.9-4.61,4.5-8.87,7.05-13.14c10.03-16.09,22.04-31.17,36.94-43.02c14.32-12.31,31.18-21.31,48.63-28.33
		c32.72-12.39,68.3-15.29,102.99-12.96c23.66,1.61,46.91,6.75,70.57,8.41c10.29,1.21,20.67,1.11,31.02,1.21
		c49.73,0.36,99.49-10.1,144.97-30.22C658.27,489.14,693.42,465.42,724.08,437.06 M773.05,572.11
		c-30.38,12.91-59.56,28.43-89.38,42.56c-13.9,6.73-28.5,13.3-39.25,24.75c-2.82,3.33-5.97,7.51-4.95,12.15
		c3,5.42,10.21,5.35,15.61,5.06c11.71-1.3,22.9-5.3,33.8-9.62c0.77,0.66,1.54,1.32,2.32,1.99c-4.37,5.21-8.31,10.85-11.35,16.94
		c-3.64,7.55-7.47,15.09-9.61,23.25c-1.53,6.08-3.4,12.12-4.02,18.38c-2.78,15.01-3.48,30.27-5.3,45.4
		c-0.45,5.72,0.17,11.53,2.06,16.96c3.07,9.9,11.43,17.46,20.86,21.27c10.48,4.05,21.92,4.8,33.05,4.81l0.51,0.66
		c12.49,0.62,25.02,1.34,37.52,2.03c3.69-0.37,7.39-0.46,11.1-0.46c1.54,0.22,2.43-1.19,3.17-2.26c-2.63-0.31-5.27-0.3-7.9-0.19
		l-0.02-0.6c13.16,0.37,26.33,0,39.5-0.22l0.03-0.9c-0.76-0.14-2.29-0.41-3.06-0.55c16.51-1.34,33.36-2.84,49.04-8.37l0.92-0.12
		c4.51,2.31,10.06-3.1201,14.44,0.7c10.29-1.93,19.94-6.57,29.17-11.46c7.99-4.81,16.45-9.17,22.98-15.98
		c1.79-1.93,4.2401-3.57,4.7401-6.34c14.46-17.54,19.6899-40.74,21.16-62.96c-0.26-7.1,1.51-14.34-0.5-21.3
		c0.52-0.87,0.98-1.76,1.37-2.68c0.24-0.22,0.72-0.65,0.96-0.87c-0.45-0.03-1.36-0.11-1.82-0.14c-0.86-24.05-5.09-47.91-11.08-71.19
		c0.51-0.01,1.52-0.05,2.03-0.07c7.96,3.23,15.87,6.64,23.5099,10.6c3.07,1.58,5.9901,3.53,9.33,4.56
		c-14.34-9.9-29.32-18.94-44.7-27.15c-25.32-13.49-53.12-24.72-82.28-24.17C814.78,556.48,793.37,563.71,773.05,572.11
		 M552.59,884.47c-12.48,2.17-24.98,8.05-32.54,18.54c9.4-1.96,18.35-5.83,27.96-6.96c13.08-1.99,26.5-1.46,39.41,1.46
		c6.19,1.05,12.18,3.33,18.5,3.47c-1.44-4.26-5.71-6.36-9.24-8.64C583.45,884.71,567.62,882.15,552.59,884.47 M627.9,916.82
		c2.12,10.6,6.89,21.39,4.35,32.36c-0.7,3.71-3.99,6.04-7.59,6.45c-9.53,0.95-18.1299-5.51-27.66-4.49
		c-9.44,1.8-16.24,9.28-24.84,12.98c-5.1299,2.33-11.4,2.97-16.52,0.29c-8.76-3.85-15.22-11.89-24.64-14.36
		c-6.81-1.76-12.98,2.15-18.59,5.4c-3.63,2.17-7.65,4.58-12.03,4.16c-4.77-1.53-7.93-6.63-7.55-11.59
		c-0.37-8.48,4.51-15.73,7.44-23.3c-2.63,1.58-4.1,4.35-5.77,6.83c-3.32,5.26-6.36,11.05-6.6,17.41c-0.34,4.46,1,8.95,3.46,12.67
		c2.48,3.71,7.15,5.97,11.62,5.2c8.38-1.34,15.09-7.28,23.14-9.53c4.78,0.22,8.62,3.7,12.68,5.89c9.3,5.55,19.83,11.39,31.05,9.53
		c8.45-2.05,15.38-7.62,22.35-12.52c2.6-1.72,5.76-3.62,8.97-2.45c7.17,2.17,14.15,5.91,21.87,5.37
		c7.47,0.01,14.65-5.77,15.75-13.23c1.28-8.19-1.66-16.27-5.1-23.56C631.97,923.04,630.6,919.45,627.9,916.82 M494.04,1042.15
		c-15.17,2.16-29.77,7.4-45.07,8.77c-1.65,0.21-4.93,0.62-4.58,2.86c9.76,15.14,19.64,30.58,33.09,42.77
		c5.77,5.37,13.02,8.6699,20.09,11.9399c13.61,6.1,28.02,10.24,42.62,13.14c40.61,8.12,83.4,0.99,120.43-17.03
		c9.81-4.98,18.04-12.5,25.63-20.35c10.74-11.51,20.24-24.13,28.72-37.38c-8.33,0.89-16.5099,3.16-24.96,3.01
		c-13.21,0.6-25.88-3.5601-38.63-6.3101c-9.16-2.21-18.79-1.96-28-0.1499c-15.87,2.7699-31.24,7.75-47.02,10.9299
		c-3.28,0.79-6.67,0.38-9.8-0.78c-10.73-3.6399-21.4-7.46-32.18-10.9299C521.28,1038.73,507.32,1039.74,494.04,1042.15z"/>
	<path fill="#AA0000" stroke="#AA0000" stroke-width="0.2" d="M773.05,572.11c20.32-8.4,41.73-15.63,63.96-15.53
		c29.16-0.55,56.96,10.68,82.28,24.17c15.38,8.21,30.36,17.25,44.7,27.15c-3.34-1.03-6.26-2.98-9.33-4.56
		c-7.64-3.96-15.55-7.3701-23.5099-10.6c-15.06-5.69-30.73-10.32-46.85-11.54c-12.18-1.09-24.57-0.93-36.61,1.38
		c-9.49,1.48-18.85,3.91-27.9,7.15c-8.5,2.71-16.7,6.23-24.91,9.68c-8.14,3.58-16.29,7.17-24.26,11.1
		c-11.34,5.23-22.56,10.7-33.89,15.94c-11.21,5.27-22.63,10.05-33.96,15.06c-4.69,1.68-9.25,3.69-13.89,5.5
		c-10.9,4.32-22.09,8.32-33.8,9.62c-5.4,0.29-12.61,0.36-15.61-5.06c-1.02-4.64,2.13-8.82,4.95-12.15
		c10.75-11.45,25.35-18.02,39.25-24.75C713.49,600.54,742.67,585.02,773.05,572.11z"/>
	<path fill="#AA0000" stroke="#AA0000" stroke-width="0.2" d="M240.8,607.78c21.24-5.52,43.2-8.67,65.19-7.8
		c16.74,0.23,33.31,2.82,49.8,5.54c34.7,6.58,68.81,15.88,102.64,25.96c7.64,2.25,15.53,4.32,22.22,8.81
		c4.49,2.96,9.16,7.05,9.78,12.73c0.57,3.87-2.2,7.28-5.49,8.93c-7,3.65-15.11,3.13-22.75,3.11c-14.27-1.57-27.98-5.95-41.84-9.44
		c-6.1-1.67-12.16-3.5-18.33-4.85c-10.45-3.41-21.11-6.16-31.67-9.21c-15.62-4.55-31.3-8.98-47.08-12.93
		c-12.82-3.53-25.89-6.18-39.06-8.01c-15.68-2.4-31.63-3.21-47.47-2.45c-10.35-0.2-20.64,1.27-30.9,2.42
		c-9.64,0.89-19.12,2.87-28.64,4.52c0.15-0.29,0.45-0.86,0.6-1.15C199.1,619.85,219.74,612.95,240.8,607.78z"/>
	<path stroke="#000000" stroke-width="0.2" d="M898.23,645.11c0.1,0.23,0.29,0.69,0.39,0.92c-4.91,9.36-9.38,18.93-14.17,28.35
		c-0.43,1.05-1.21,2.08-1.09,3.28c2.27,2.21,4.85,4.08,7.09,6.35c11.13-8.41,19.88-19.48,27.64-30.95
		c-5.48,12.96-11.97,25.51-17.63,38.4c-0.52,0.99-0.53,2-0.02,3.0099c1.32,0.04,2.51-0.6,3.65-1.22c6.5099-3.76,12.98-7.63,19-12.16
		c6.6-4.66,12.1299-10.56,17.97-16.08c-0.39,0.92-0.85,1.81-1.37,2.68c-5.57,6.84-10.44,14.22-15.67,21.32
		c-4.43,6.39-9.35,12.45-13.44,19.07c-22.33-20.73-50.73-34.93-80.8-39.99c-31.79-5.58-65.1201-0.48-94.1,13.6
		c-16.97,8.09-32.64,18.84-46.56,31.47c-4.95,4.44-9.36,9.4301-14.25,13.92c1.32-2.5,2.9-4.84,4.49-7.17
		c5.15-7.71,10.83-15.08,17.13-21.89c6.32-6.79,13.19-13.06,20.52-18.75c7.89-5.86,16.24-11.15,25.12-15.38
		c9.96-4.75,20.43-8.45,31.2-10.93c17.18-3.78,35.12-4.47,52.48-1.47c7.41,1.61,14.8,3.4,21.94,6.03
		c9.61,3.56,18.5,8.67,27.28,13.87c5.5699-3.36,9.81-8.64,14.2599-13.34C892.7,654.06,895.9,649.83,898.23,645.11z"/>
	<path fill="#DEAA87" stroke="#DEAA87" stroke-width="0.2" d="M62.42,649.67c10.61-2.34,21.64,0.88,30.53,6.78
		c1.62,1.18,3.13,2.51,4.66,3.82c-0.73,26.83-4.52,53.47-9.57,79.8c-0.47,2.55-1.32,5.1-1.1,7.73c3.72,3.33,9.18,1.6,12.61-1.24
		c6.31-5.19,10.76-12.22,14.85-19.2c5.78-9.66,10.86-19.7,15.84-29.78c1.53,3.62,0.53,7.62,0.47,11.41
		c-0.94,9.01-0.33,18.09-1.39,27.09c-1.02,20.91-3,41.78-5.81,62.53c-5.7,38.95-14.73,77.96-32.46,113.34
		c0.29,0.53,0.87,1.61,1.16,2.15c-2.06,1.28-4.15,2.51-6.33,3.6c-10.81,4.99-23.86,4.63-34.29-1.15
		c-14.09-7.66-23.79-21.24-31.08-35.15C6.22,853.03,0.8,821.01,0,789.5v-8.99c0.48-17.27,2.24-34.55,6.19-51.39
		c4.77-20.26,12.21-40.33,24.79-57.11C38.91,661.73,49.34,652.35,62.42,649.67 M33.1,746.1c-7.37,26.14-11.83,53.86-7.1,80.9
		c2.94,17.95,10.46,34.8,19.54,50.43c2.41,3.62,4.18,7.8,7.52,10.7c-1.04-3.98-3.35-7.44-5.09-11.12
		c-7.44-14.42-11.31-30.79-9.86-47.03c0.75-5.75,0.91-11.82,3.81-17.01c2.91-5.7,5.85-12.11,11.73-15.29
		c9.87-3.79,21.11,0.65,30.86-3.64c-1.74-1.21-3.59-2.2599-5.61-2.88c-9.09-2.92-18.87-4.37-28.33-2.62
		c-4.05,0.75-7.56,2.94-11.04,5.01c-1.08,0.9-2.62,0.22-3.19-0.9c-2.98-4.64-3.76-10.2401-4.17-15.62
		c-0.75-11.8,1.75-23.45,2.79-35.13C34.07,743.16,33.45,744.59,33.1,746.1z"/>
	<path stroke="#000000" stroke-width="0.2" d="M229.06,649.98l0.66,0.3c4.81,9.1899,12.37,16.3799,19.65,23.58
		c1.93-1.15,3.83-2.34,5.73-3.53c16.27-10.21,35.03-16.15,54.13-17.84c17.99-1.32,36.02,1.47,53.31,6.34
		c10.67,3.92,21.21,8.23,31.07,13.93c9.25,5.5,17.98,11.86,26.11,18.91c7.96,7.15,15.3,14.97,22.05,23.26
		c3.41,5.01,7.51,9.54,10.43,14.88c-24.02-27.1-55.59-47.97-90.89-56.81c-15.57-3.71-31.66-5.18-47.63-4.04
		c-35.66,2.05-70.31,16.82-97.08,40.35c-1.1-0.85-2.17-1.77-2.97-2.9c-6.45-9.08-12.96-18.12-19.55-27.09
		c-2.91-4.5-6.47-8.56-9.11-13.22c2.84,2.69,5.35,5.71,8.24,8.36c6.76,6.16,14.17,11.59,21.99,16.34c3.52,2.08,6.95,4.54,11.03,5.37
		c-0.17-1.53-0.25-3.08-0.9-4.49c-5.76-12.55-11.83-24.98-17.43-37.6c7.63,11.47,16.29,22.51,27.21,31.04
		c2.95-1.69,5.29-4.22,7.93-6.32C238.51,669.13,233.43,659.72,229.06,649.98z"/>
	<path fill="#DEAA87" stroke="#DEAA87" stroke-width="0.2" d="M1076.1,653.58c7.34,1.06,13.87,5.14,19.5,9.79
		c13.9601,12.02,22.88,28.74,29.24,45.78c8.77,23.7599,12.4501,49.13,13.16,74.36v9.98c-0.7,26.51-4.8,53.17-14.48,77.96
		c-6.1901,15.52-14.6,30.67-27.3101,41.8c-6.2,5.47-13.77,9.63-21.99,10.97c-9.48,1.8101-19.38-0.93-27.4399-6
		c-4.3401-2.64-7.97-6.22-11.73-9.58c-1.29-1.67-2.65-3.28-4.0701-4.81c0.1901-6.27,0.63-12.53,0.28-18.79
		c-0.24-27.36-0.01-54.72-0.51-82.07c-0.42-4.8,0.03-9.81-1.85-14.35c5.83-7.69,10.78-16.01,15.1899-24.58
		C1061.27,729.49,1070.22,691.52,1076.1,653.58 M1093.09,739.9c-0.15,5.75,1.6,11.33,1.89,17.06c0.16,5.03,1.14,10.03,0.9,15.08
		c-0.47,6.92-1.04,14.47-5.95,19.86c-6.15-4.19-13.4-7.05-20.9301-6.85c-8.66,0.22-17.23,2.38-25.2,5.71
		c-1.66,1,0.6399,1.67,1.5399,1.82c6.1801,0.76,12.41,1.47,18.66,1.24c3.54,0.02,7.35-0.15,10.58,1.6
		c4.3501,3.06,7.7101,7.35,9.8401,12.22c3.0199,4.57,4.4299,9.93,4.7999,15.36c2.3101,15.43-0.22,31.41-6.63,45.6
		c-2.5299,6.32-6.5499,11.98-8.62,18.48c0.72-0.65,1.39-1.33,2.02-2.07c12.95-18.8,22.6901-40.15,26.3101-62.8
		c3.01-18.7401,1.46-37.87-2.13-56.41C1098.09,757.12,1096.91,748.01,1093.09,739.9z"/>
	<path fill="#CCCCCC" stroke="#CCCCCC" stroke-width="0.2" d="M735.68,681.69c28.98-14.08,62.31-19.18,94.1-13.6
		c30.0699,5.06,58.47,19.2599,80.8,39.99c1.14,2.12,1.99,4.4,2.63,6.74c-13.69-0.77-27.33-2.26-41.01-3.2
		c-5.83-0.62-11.71-0.44-17.51-1.33c-7.47-15.95-21.05-28.94-37.39-35.54c-11.66-4.87-24.65-6.09-37.1-4.3
		c-17.94,2.79-34.52,12.93-45.3,27.51c-6.14,8.03-10.17,17.46-12.64,27.21c0-0.56-0.02-1.7-0.02-2.26
		c-14.28,4.44-28.16,10.15-41.6,16.69c-4.63,2.15-8.95,5.04-13.93,6.35c1.23-6.82,4.11-13.27,8.16-18.87
		c4.89-4.49,9.3-9.48,14.25-13.92C703.04,700.53,718.71,689.78,735.68,681.69z"/>
	<path fill="#CCCCCC" stroke="#CCCCCC" stroke-width="0.2" d="M216.6,709.31c26.77-23.53,61.42-38.3,97.08-40.35
		c4.66,2.5099,10.32-0.4,14.97,2.34c-5.44,1.31-11.04,2.03-16.31,4c-18.15,6.23-33.24,20.36-41.15,37.79l-0.15-0.7401
		c-19.35,1.07-38.69,2.54-57.96,4.59C213.78,714.21,214.75,711.48,216.6,709.31z"/>
	<path fill="#E6E6E6" stroke="#E6E6E6" stroke-width="0.2" d="M313.68,668.96c15.97-1.14,32.06,0.33,47.63,4.04
		c-0.85,0.77-1.7,1.55-2.55,2.34c-9.57-3.78-19.94-4.28-30.11-4.04C324,668.56,318.34,671.47,313.68,668.96z"/>
	<path fill="#008033" stroke="#008033" stroke-width="0.2" d="M734.9,697.96c10.78-14.58,27.36-24.72,45.3-27.51
		c12.45-1.79,25.44-0.57,37.1,4.3c16.34,6.6,29.92,19.59,37.39,35.54c4.48,9.57,6.83,20.15,6.77,30.73
		c-8.28-0.28-16.61,0.22-24.84-0.83c-0.42-5.32-0.71-10.95-3.51-15.65c7.34-4.98,8.61-16.61,2.13-22.79
		c-5.39-5.88-15.47-5.6-20.89,0.1c-7.2-5.39-16.58-7.15-25.41-6.85c-15.73,0.49-30.57,10.19-37.85,24.06
		c-4.6,8.24-6.02,17.87-5.31,27.19c-0.33-2.1-0.54-4.21-0.69-6.32c-8.17,0.17-16.47-0.79-24.53,0.91c0.21-5.26,0.64-10.51,1.7-15.67
		C724.73,715.42,728.76,705.99,734.9,697.96z"/>
	<path fill="#008033" stroke="#008033" stroke-width="0.2" d="M328.65,671.3c10.17-0.24,20.54,0.26,30.11,4.04
		c15.63,5.73,29.2,16.97,37.45,31.46c3.22,5.44,5.42,11.39,7.35,17.38c1.3,5.87,2.23,11.86,2.29,17.89
		c-8.29-0.57-16.61-0.54-24.92-0.25c-0.23-4.82-1.11-9.61-2.55-14.22c-0.33-1.24-0.98-2.39-2.17-2.94
		c5.57-5.35,6.07-14.92,0.73-20.61c-4.81-5.75-13.89-6.42-19.8-1.97c-11.72-6.04-25.97-7.34-38.28-2.26
		c-17.25,6.59-29.39,24.45-28.97,42.95c-8.31-0.69-16.7,0.05-25.04,0.15c0.06-10.25,2.18-20.46,6.34-29.83
		c7.91-17.4301,23-31.56,41.15-37.79C317.61,673.33,323.21,672.61,328.65,671.3z"/>
	<path fill="#CCCCCC" stroke="#CCCCCC" stroke-width="0.2" d="M361.31,673c35.3,8.84,66.87,29.71,90.89,56.81
		c3.83,5.49,6.33,11.85,7.7,18.39c-6.24-2.62-12.09-6.05-18.24-8.86c-12.38-5.83-25.16-10.73-38.1-15.16
		c-1.93-5.99-4.13-11.94-7.35-17.38c-8.25-14.49-21.82-25.73-37.45-31.46C359.61,674.55,360.46,673.77,361.31,673z"/>
	<path stroke="#000000" stroke-width="0.2" d="M751.09,719.06c7.28-13.87,22.12-23.57,37.85-24.06c8.83-0.3,18.21,1.46,25.41,6.85
		c-4.92,5.29-5.48,14.01-0.79,19.62c4.46,5.95,13.43,7.16,19.55,3.07c2.8,4.7,3.09,10.33,3.51,15.65
		c0.11,11.31-3.77,22.66-11.29,31.18c-8.9,10.36-22.68,16.6-36.4,15.63c-14.27-0.44-27.88-8.43-35.65-20.33
		c-4.11-6.08-6.47-13.19-7.5-20.42C745.07,736.93,746.49,727.3,751.09,719.06z"/>
	<path stroke="#000000" stroke-width="0.2" d="M318.86,699.82c12.31-5.08,26.56-3.78,38.28,2.26c-6.7,5.26-7.6,16.2-1.45,22.23
		c5.27,5.76,14.99,5.79,20.52,0.35c1.19,0.55,1.84,1.7,2.17,2.94c1.44,4.61,2.32,9.4,2.55,14.22c0.13,11.94-4.28,23.93-12.54,32.62
		c-10.06,10.99-25.81,16.42-40.5,13.79c-21.51-3.2-38.62-23.75-38-45.46C289.47,724.27,301.61,706.41,318.86,699.82z"/>
	<path fill="#F9F9F9" stroke="#F9F9F9" stroke-width="0.2" d="M814.35,701.85c5.42-5.7,15.5-5.98,20.89-0.1
		c6.48,6.18,5.21,17.81-2.13,22.79c-6.12,4.09-15.09,2.88-19.55-3.07C808.87,715.86,809.43,707.14,814.35,701.85z"/>
	<path fill="#F9F9F9" stroke="#F9F9F9" stroke-width="0.2" d="M357.14,702.08c5.91-4.45,14.99-3.78,19.8,1.97
		c5.34,5.69,4.84,15.26-0.73,20.61c-5.53,5.44-15.25,5.41-20.52-0.35C349.54,718.28,350.44,707.34,357.14,702.08z"/>
	<path fill="#E6E6E6" stroke="#E6E6E6" stroke-width="0.2" d="M854.69,710.29c5.8,0.89,11.68,0.71,17.51,1.33
		c13.68,0.94,27.32,2.43,41.01,3.2c1.72,7.14,1.74,14.81-0.45,21.86c-2.77,9.31-9.02,17.04-16.1,23.49
		c-14.1299,11.88-31.14,20.21-48.96,24.86l-0.92,0.12c9.35-12.6801,15.1-28.26,14.68-44.13
		C861.52,730.44,859.17,719.86,854.69,710.29z"/>
	<path fill="#E6E6E6" stroke="#E6E6E6" stroke-width="0.2" d="M213.08,716.94c19.27-2.05,38.61-3.52,57.96-4.59l0.15,0.7401
		c-4.16,9.37-6.28,19.58-6.34,29.83c-0.29,15.97,5.59,31.59,15.05,44.32c-2.25-0.67-4.52-1.24-6.78-1.87
		c-14.98-5.09-29.53-12.03-41.82-22.13c-5.63-4.96-10.91-10.48-14.42-17.18C211.99,737.27,210.66,726.68,213.08,716.94z"/>
	<path fill="#E6E6E6" stroke="#E6E6E6" stroke-width="0.2" d="M680.64,739.6c13.44-6.54,27.32-12.25,41.6-16.69
		c0,0.56,0.02,1.7,0.02,2.26c-1.06,5.16-1.49,10.41-1.7,15.67c-0.09,16.2,5.4,32.42,15.62,45.02c2.02,2.44,4.18,4.76,6.02,7.35
		c-8.66-0.15-17.31-0.6-25.91-1.68c-14.65-2.13-30.47-4.6801-41.95-14.83c-8.52-7.6-10.2-20.12-7.63-30.75
		C671.69,744.64,676.01,741.75,680.64,739.6z"/>
	<path fill="#E6E6E6" stroke="#E6E6E6" stroke-width="0.2" d="M403.56,724.18c12.94,4.43,25.72,9.33,38.1,15.16
		c6.15,2.81,12,6.24,18.24,8.86c2.84,11.36-0.17,24.62-9.75,31.96c-11.51,8.64-26.18,11.29-40.15,13.02
		c-5.37,0.86-10.88,0.54-16.21,1.7c-3.32,0.06-6.64,0.13-9.96,0.15c13.83-13.9301,22.6-33.16,22.02-52.96
		C405.79,736.04,404.86,730.05,403.56,724.18z"/>
	<path fill="#00D455" stroke="#00D455" stroke-width="0.2" d="M720.56,740.84c8.06-1.7,16.36-0.7401,24.53-0.91
		c0.15,2.11,0.36,4.22,0.69,6.32c1.03,7.23,3.39,14.34,7.5,20.42c7.77,11.9,21.3799,19.89,35.65,20.33
		c13.72,0.97,27.5-5.27,36.4-15.63c7.52-8.52,11.4-19.87,11.29-31.18c8.23,1.05,16.56,0.55,24.84,0.83
		c0.42,15.87-5.33,31.45-14.68,44.13c-15.6801,5.53-32.53,7.03-49.04,8.37c-18.51-0.02-37.05,0.54-55.54-0.31
		c-1.84-2.59-4-4.91-6.02-7.35C725.96,773.26,720.47,757.04,720.56,740.84z"/>
	<path fill="#D89B72" stroke="#D89B72" stroke-width="0.2" d="M1093.09,739.9c3.8201,8.11,5,17.22,7.0801,25.9
		c3.59,18.54,5.14,37.67,2.13,56.41c-3.62,22.65-13.3601,44-26.3101,62.8c-0.63,0.74-1.3,1.42-2.02,2.07
		c2.0701-6.5,6.0901-12.16,8.62-18.48c6.41-14.19,8.9401-30.17,6.63-45.6c-0.37-5.43-1.78-10.79-4.7999-15.36
		c-2.13-4.87-5.49-9.16-9.8401-12.22c-3.23-1.75-7.0399-1.58-10.58-1.6c-6.25,0.23-12.48-0.48-18.66-1.24
		c-0.9-0.15-3.2-0.82-1.5399-1.82c7.97-3.33,16.5399-5.49,25.2-5.71c7.53-0.2,14.78,2.66,20.9301,6.85
		c4.9099-5.39,5.48-12.94,5.95-19.86c0.24-5.05-0.74-10.05-0.9-15.08C1094.6899,751.23,1092.9399,745.65,1093.09,739.9z"/>
	<path fill="#D89A72" stroke="#D89A72" stroke-width="0.2" d="M33.1,746.1c0.35-1.5099,0.97-2.94,1.86-4.2
		c-1.04,11.68-3.54,23.33-2.79,35.13c0.41,5.3799,1.19,10.98,4.17,15.62c0.57,1.12,2.11,1.8,3.19,0.9
		c3.48-2.07,6.99-4.26,11.04-5.01c9.46-1.75,19.24-0.3,28.33,2.62c2.02,0.6201,3.87,1.67,5.61,2.88
		c-9.75,4.29-20.99-0.15-30.86,3.64c-5.88,3.18-8.82,9.59-11.73,15.29c-2.9,5.19-3.06,11.26-3.81,17.01
		c-1.45,16.24,2.42,32.61,9.86,47.03c1.74,3.68,4.05,7.14,5.09,11.12c-3.34-2.9-5.11-7.08-7.52-10.7
		C36.46,861.8,28.94,844.95,26,827C21.27,799.96,25.73,772.24,33.1,746.1z"/>
	<path fill="#00D455" stroke="#00D455" stroke-width="0.2" d="M264.85,742.92c8.34-0.1,16.73-0.84,25.04-0.15
		c-0.62,21.71,16.49,42.26,38,45.46c14.69,2.63,30.44-2.8,40.5-13.79c8.26-8.69,12.67-20.68,12.54-32.62
		c8.31-0.29,16.63-0.32,24.92,0.25c0.58,19.8-8.19,39.03-22.02,52.96c-14.6,0.4399-29.22,0.2599-43.82,0.27
		c-9.99,0.01-19.96-0.6-29.88-1.69c-10.19-1.51-20.38-3.27-30.23-6.37C270.44,774.51,264.56,758.89,264.85,742.92z"/>
	<g>
		<linearGradient id="SVGID_1_" gradientUnits="userSpaceOnUse" x1="847.7" y1="726.71" x2="940.6629" y2="726.71">
			<stop  offset="0" style="stop-color:#E8C3AB"/>
			<stop  offset="1" style="stop-color:#D49063"/>
		</linearGradient>
		<path fill="url(#SVGID_1_)" stroke="#E5BCA0" stroke-width="0.2" d="M939.6899,667.6899
			C934.12,674.53,929.25,681.9099,924.02,689.01c-4.4299,6.39-9.3501,12.45-13.4399,19.0701c1.1399,2.1199,1.99,4.3999,2.6299,6.74
			c1.72,7.1399,1.74,14.8099-0.45,21.8599c-2.77,9.31-9.02,17.04-16.1001,23.49c0.3901,0.2363,0.7983,0.3642,1.1997,0.3823
			c-0.4014-0.0181-0.8097-0.1461-1.1997-0.3823c-14.1299,11.88-31.1399,20.21-48.96,24.86c4.51,2.31,10.0601-3.1201,14.4401,0.7
			c10.2899-1.93,19.9401-6.57,29.17-11.46c7.99-4.81,16.45-9.17,22.98-15.98c1.79-1.93,4.24-3.57,4.74-6.34
			c14.46-17.5401,19.6899-40.7401,21.1599-62.96C939.9299,681.89,941.7,674.65,939.6899,667.6899z"/>
		<linearGradient id="SVGID_2_" gradientUnits="userSpaceOnUse" x1="660.7798" y1="689.6241" x2="942.02" y2="689.6241">
			<stop  offset="0" style="stop-color:#E8C3AB"/>
			<stop  offset="1" style="stop-color:#D49063"/>
		</linearGradient>
		<path fill="url(#SVGID_2_)" stroke="#E5BCA0" stroke-width="0.2" d="M940.2,664c-0.8599-24.05-5.09-47.9099-11.08-71.1899
			c0.51-0.01,1.52-0.05,2.03-0.0701c-15.0599-5.6899-30.7301-10.3201-46.85-11.54c-12.1801-1.09-24.5701-0.9299-36.6101,1.3801
			c-9.49,1.48-18.8499,3.9099-27.8999,7.1499c-8.5,2.71-16.7,6.23-24.91,9.6799c-8.14,3.5801-16.2899,7.1702-24.26,11.1001
			c-11.34,5.23-22.5599,10.7-33.89,15.9399c-11.21,5.27-22.63,10.05-33.96,15.0601c-4.6899,1.6799-9.25,3.6899-13.89,5.5
			c0.77,0.6599,1.5399,1.3201,2.3199,1.99c-4.3699,5.21-8.3099,10.85-11.35,16.9399c-3.64,7.55-7.47,15.0901-9.61,23.25
			c-1.53,6.0801-3.3999,12.1201-4.02,18.3801c-2.78,15.01-3.48,30.27-5.3,45.3999c-0.45,5.72,0.1702,11.53,2.0601,16.96
			c3.0701,9.9,11.4299,17.46,20.8601,21.27c10.48,4.05,21.9199,4.8,33.0499,4.81l0.51,0.66c12.49,0.62,25.0199,1.34,37.5199,2.03
			c3.6901-0.37,7.3901-0.46,11.1001-0.46c1.54,0.22,2.4299-1.19,3.1699-2.26c-2.6299-0.31-5.27-0.3-7.8999-0.19l-0.02-0.6
			c13.1599,0.37,26.33,0,39.5-0.22l0.03-0.9c-0.76-0.14-2.29-0.41-3.0601-0.55c-18.51-0.02-37.05,0.54-55.54-0.31
			c-8.6599-0.15-17.3099-0.6-25.9099-1.68c-14.65-2.13-30.47-4.6801-41.95-14.83c-8.52-7.6-10.2001-20.12-7.6301-30.75
			c1.23-6.82,4.1101-13.2701,8.16-18.8699c1.3199-2.5,2.9-4.8401,4.49-7.1702c5.15-7.71,10.83-15.0798,17.13-21.8899
			c6.3201-6.79,13.1899-13.0601,20.52-18.75c7.89-5.8601,16.24-11.15,25.12-15.38c9.9601-4.75,20.4301-8.4501,31.2001-10.9301
			c17.1799-3.78,35.1199-4.47,52.48-1.47c7.4099,1.61,14.7999,3.4,21.9399,6.03c9.61,3.5601,18.5,8.6699,27.28,13.87
			c5.5699-3.36,9.8101-8.64,14.26-13.34c3.4099-3.99,6.61-8.22,8.9399-12.9401c0.1001,0.2301,0.29,0.6901,0.39,0.92
			c-4.91,9.36-9.38,18.9299-14.17,28.35c-0.4299,1.0499-1.21,2.08-1.09,3.2799c2.27,2.2101,4.85,4.0801,7.09,6.3501
			c11.1301-8.41,19.8801-19.48,27.6401-30.95c-5.4801,12.96-11.9701,25.51-17.6301,38.3999c-0.52,0.99-0.53,2-0.02,3.01
			c1.3201,0.04,2.51-0.6,3.6501-1.22c6.5099-3.76,12.98-7.63,19-12.1599c6.5999-4.6602,12.1299-10.5601,17.97-16.0801
			c0.24-0.22,0.72-0.65,0.96-0.87C941.5701,664.11,940.6599,664.03,940.2,664z"/>
	</g>
	<g>
		<linearGradient id="SVGID_3_" gradientUnits="userSpaceOnUse" x1="192.0628" y1="732.5367" x2="273.12" y2="732.5367">
			<stop  offset="0" style="stop-color:#D49063"/>
			<stop  offset="1" style="stop-color:#E8C3AB"/>
		</linearGradient>
		<path fill="url(#SVGID_3_)" stroke="#E5BCA0" stroke-width="0.2" d="M216.88,746.06c-4.89-8.79-6.22-19.3801-3.8-29.1201
			c0.7-2.73,1.67-5.46,3.52-7.6299c-1.1-0.8501-2.17-1.77-2.97-2.9001c-6.45-9.0798-12.96-18.1199-19.55-27.0898
			c-1.91,3.9199-1.76,8.3799-2,12.6299c-0.27,17.91,2.58,36.4501,11.98,52.0001c2.53,4.88,6.42,8.79,9.83,13.03
			c4.61,6.52,11.67,10.7,18.41,14.71c5.03,3.13,10.4,5.66,15.7,8.3c4.77,2.26,9.71,4.45,15.03,4.9c3.35,0.26,6.76,1.47,10.09,0.48
			c-14.98-5.09-29.53-12.03-41.82-22.13C225.67,758.28,220.39,752.76,216.88,746.06z"/>
		<linearGradient id="SVGID_4_" gradientUnits="userSpaceOnUse" x1="193.21" y1="709.8526" x2="469.8304" y2="709.8526">
			<stop  offset="0" style="stop-color:#D49063"/>
			<stop  offset="1" style="stop-color:#E8C3AB"/>
		</linearGradient>
		<path fill="url(#SVGID_4_)" stroke="#E5BCA0" stroke-width="0.2" d="M468.77,747.08c-1.24-14.68-2.1799-29.3901-3.91-44.03
			c-1.08-12.53-4.2899-24.72-7.95-36.7001c1.7799-0.33,3.5499-0.73,5.2799-1.2899c-14.2699-1.5701-27.98-5.9501-41.8398-9.4401
			c-6.1001-1.67-12.1602-3.5-18.3301-4.85c-10.45-3.41-21.11-6.16-31.6699-9.21c-15.6201-4.55-31.3-8.98-47.0801-12.9301
			c-12.82-3.53-25.89-6.1801-39.06-8.01c-15.68-2.4-31.63-3.2101-47.47-2.4501c-10.35-0.2-20.64,1.27-30.9,2.4202
			c0.53,0.0199,1.58,0.0599,2.11,0.0798c-4.54,12.4001-8.97,24.8901-11.49,37.8901c-1.29,5.26-1.63,10.72-3.25,15.8999
			c6.76,6.16,14.17,11.5901,21.99,16.3401c3.52,2.08,6.95,4.54,11.03,5.3699c-0.17-1.5299-0.25-3.0798-0.9-4.49
			c-5.76-12.5499-11.83-24.98-17.43-37.5999c7.63,11.47,16.29,22.51,27.21,31.0399c2.95-1.6901,5.29-4.22,7.93-6.3199
			c-4.53-9.67-9.61-19.0801-13.98-28.8201l0.66,0.3c4.81,9.1899,12.37,16.3799,19.65,23.58c1.93-1.15,3.83-2.34,5.73-3.5299
			c16.27-10.2101,35.03-16.1501,54.13-17.8401c17.9899-1.3201,36.02,1.47,53.31,6.3401c10.6699,3.9199,21.21,8.23,31.0699,13.9299
			c9.25,5.5,17.9801,11.86,26.11,18.9099c7.96,7.1501,15.3,14.9701,22.05,23.26c3.4099,5.01,7.51,9.54,10.4299,14.8801
			C456.03,735.3,458.53,741.66,459.9,748.2c2.84,11.36-0.17,24.62-9.75,31.96c-11.51,8.64-26.1801,11.29-40.15,13.02
			c-5.37,0.86-10.88,0.54-16.21,1.7c-3.3201,0.06-6.64,0.13-9.96,0.15C369.23,795.47,354.61,795.29,340.01,795.3
			c-9.99,0.01-19.96-0.6-29.88-1.69c-1.11,0.3-2.22,0.64-3.31,1c4.62,0.8,9.2801,1.39,13.96,1.74c-0.11,0.8-0.22,1.62-0.3201,2.44
			c5.1001,1.18,10.24,2.55,15.53,2.2401c6.72-0.22,13.4,1.62,20.1001,0.3c13.4399-0.3,26.9399-0.35,40.2999-2.05
			c15.2899-2.03,31.09-0.38,46.03-4.79c9.2699-2.8,18.23-8.51,22.8099-17.3C470.37,768.07,470.64,757.14,468.77,747.08z"/>
	</g>
	<path fill="#E4BA9E" stroke="#E4BA9E" stroke-width="0.2" d="M552.59,884.47c15.03-2.3199,30.86,0.2401,44.09,7.8701
		c3.53,2.28,7.8,4.3799,9.24,8.64c-6.32-0.14-12.31-2.42-18.5-3.47c-12.91-2.92-26.33-3.45-39.41-1.46
		c-9.61,1.13-18.56,5-27.96,6.96C527.61,892.52,540.11,886.64,552.59,884.47z"/>
	<path fill="#AA0000" stroke="#AA0000" stroke-width="0.2" d="M1030.98,903.83c1.42,1.53,2.78,3.14,4.0701,4.81
		c0.7,10.56,3.5299,20.85,4.88,31.34c15.5199,94.6901,29.47,189.7001,38.58,285.24c4.55,49.0701,7.9399,98.38,5.9399,147.6801
		c-2.6599,41.2899-7.76,83.4199-25.1599,121.4199c-7.5,15.8101-16.8401,31.12-29.49,43.3401
		c-6.9401-31.48-15.15-62.76-26.5001-92.9601c-3.2-7.83-5.31-16.3999-11.11-22.84c-10.4-12.25-24.95-19.95-39.24-26.75
		c-19.46-8.9399-39.85-15.66-60.38-21.61c-48.14-13.61-97.31-23.2-146.67-31.14c-15.2401-2.14-30.41-4.7999-45.71-6.4
		c-0.79,1.75-1.56,3.51-2.37,5.27c-4.9-0.25-9.59-1.76-14.39-2.66c-6.7-1.2799-13.44-2.3899-20.15-3.63
		c3.6-16.2,6.89-32.49,11.11-48.5399c2.12-6.73,3.9-13.55,5.83-20.3301c0.27-0.99,0.5601-1.97,0.8701-2.9199
		c101.99-25.37,194.69-86.01,259-169.09c19.06-24.1101,35.42-50.3101,49.4-77.67c9.28-17.75,18.25-35.7,25.6-54.35
		C1022.43,943.29,1028.8,923.93,1030.98,903.83z"/>
	<path fill="#AA0000" stroke="#AA0000" stroke-width="0.2" d="M92.21,914.1c3.55-2.22,6.56-5.15,9.61-7.98
		c5.91,33.66,17.57,66.07,32.05,96.94c29.38,62.4901,72.96,117.71,124.4,163.54c0.47-0.23,1.41-0.6899,1.88-0.91
		c2.94,3.15,6.48,5.63,9.84,8.3201c53.56,42.76,116.5,73.8,183.14,89.9c1.15,0.22,2.22,0.83,2.81,1.9099
		c1.26,6.2101,3.28,12.2401,4.88,18.38c3.78,17.03,7.68,34.05,12,50.9601c-10.6,2.1699-21.29,3.9399-31.87,6.23
		c-0.95-1.67-1.91-3.3101-2.87-4.9401c-46.02,5.4-91.84,12.5601-137.34,21.3601c-22.97,4.37-45.74,9.6799-68.39,15.47
		c-22.34,6.03-44.62,12.72-65.68,22.4299c-11.07,5.24-22.17,11.23-30.6,20.3301c-3.44,3.61-5.96,8.09-7.15,12.95
		c-6.33,25.92-12.1,51.98-16.88,78.23c-2.81,13.3-4.44,26.8201-7.11,40.15c-3.12-5.47-4.43-11.72-6.77-17.51
		c-13.47-42.29-19.96-86.4-24.78-130.4c-2.33-23.1499-4.7-46.2999-5.87-69.5399c-1.31-26.28-1.43-52.61-1.49-78.92
		c1.21-111.35,9.51-222.48,19.86-333.3C88.06,916.61,90.15,915.38,92.21,914.1z"/>
	<path fill="#D38D5F" stroke="#D38D5F" stroke-width="0.2" d="M627.9,916.82c2.7,2.63,4.0699,6.22,5.79,9.51
		c3.44,7.29,6.38,15.37,5.1,23.56c-1.1,7.46-8.28,13.24-15.75,13.23c-7.72,0.54-14.7-3.2-21.87-5.37c-3.21-1.17-6.37,0.73-8.97,2.45
		c-6.97,4.9-13.9,10.47-22.35,12.52c-11.22,1.86-21.75-3.98-31.05-9.53c-4.06-2.19-7.9-5.67-12.68-5.89
		c-8.05,2.25-14.76,8.19-23.14,9.53c-4.47,0.77-9.14-1.49-11.62-5.2c-2.46-3.72-3.8-8.21-3.46-12.67c0.24-6.36,3.28-12.15,6.6-17.41
		c1.67-2.48,3.14-5.25,5.77-6.83c-2.93,7.57-7.81,14.82-7.44,23.3c-0.38,4.96,2.78,10.06,7.55,11.59c4.38,0.42,8.4-1.99,12.03-4.16
		c5.61-3.25,11.78-7.16,18.59-5.4c9.42,2.47,15.88,10.51,24.64,14.36c5.12,2.6801,11.39,2.04,16.52-0.29
		c8.6-3.7,15.4-11.18,24.84-12.98c9.53-1.02,18.13,5.44,27.66,4.49c3.6-0.41,6.89-2.74,7.59-6.45
		C634.79,938.21,630.02,927.42,627.9,916.82z"/>
	<path fill="#AA0000" stroke="#AA0000" stroke-width="0.2" d="M494.04,1042.15c13.28-2.41,27.24-3.42,40.34,0.49
		c10.78,3.47,21.45,7.29,32.18,10.9299c3.13,1.16,6.52,1.5701,9.8,0.78c15.78-3.1799,31.15-8.16,47.02-10.9299
		c9.21-1.8101,18.84-2.0601,28,0.1499c12.75,2.75,25.42,6.91,38.63,6.3101c8.45,0.15,16.63-2.12,24.96-3.01
		c-8.48,13.25-17.98,25.87-28.72,37.38c-7.59,7.85-15.82,15.37-25.63,20.35c-37.03,18.02-79.82,25.15-120.43,17.03
		c-14.6-2.9-29.01-7.04-42.62-13.14c-7.07-3.27-14.32-6.5699-20.09-11.9399c-13.45-12.1901-23.33-27.63-33.09-42.77
		c-0.35-2.24,2.93-2.65,4.58-2.86C464.27,1049.55,478.87,1044.3101,494.04,1042.15 M621.18,1050.38
		c-8.62,1.85-17.2,4.0599-25.52,6.96l-0.62-0.2799c-10.09,2.3199-20.64,5.09-30.97,2.5099c-8.56-1.8899-17.13-3.88-25.66-5.97
		c-6.36-1.5499-13.19-2.61-19.6-0.83c-2.26,0.52-5.18,3.2-3.11,5.5c5.66,3.1799,12.37,3.65,18.51,5.53
		c9.29,2.87,18.87,4.87,28.59,5.5399c4.8,1.13,9.77,0.2201,14.59,1.23c8,1.3201,16.04-0.3199,24-1.0599
		c3.57-0.89,7.7-0.24,10.8-2.52c5.04-0.41,9.95-1.74,14.99-2.1899l-0.15-0.8201c4.23-0.03,8.3799-0.9399,12.5699-1.45
		c11.33-1.52,22.87-1.76,33.92-4.9401c0.15-0.33,0.44-0.99,0.58-1.3199c-10.4-1.1801-21.03-1.8201-30.95-5.4301
		C636.07,1048.33,628.42,1049.0699,621.18,1050.38 M491.99,1082.25c0.26,1.1899,0.31,2.5601,1.32,3.4399
		c5.18,5.52,10.73,10.8501,17.38,14.5901c9.39,5.2999,19.9,8.23,30.37,10.5699c8.2,1.8201,16.6,1.91,24.9,2.97
		c9.68-0.1,19.44,0.5701,29.04-1.0399c5.89-0.9401,12.26-1.11,17.56-4.05c4.53-0.22,8.8-2.12,13.27-2.87
		c4.11-1.24,8.69-1.5599,12.34-3.98c10.65-3.01,19.77-10.3101,26.76-18.77c-21.04,3.86-42.38,6.1901-63.75,7.02
		c-6.39-0.7-12.78,0.37-19.18,0.22c-14.98-0.2-29.98-0.1899-44.88-1.73c-5.8-1.37-11.87-1.1801-17.75-2.12
		C510.27,1084.87,501.06,1083.98,491.99,1082.25z"/>
	<linearGradient id="SVGID_5_" gradientUnits="userSpaceOnUse" x1="514.6022" y1="1060.1217" x2="674.4915" y2="1060.1217">
		<stop  offset="0" style="stop-color:#B11414"/>
		<stop  offset="1" style="stop-color:#BB3232"/>
	</linearGradient>
	<path fill="url(#SVGID_5_)" d="M643.3892,1050.7943c-7.1148-2.5223-14.8026-1.7788-22.0782-0.4623
		c-8.6623,1.8591-17.2845,4.08-25.6456,6.9943l-0.6229-0.2813c-10.1398,2.3313-20.7416,5.115-31.1224,2.5222
		c-8.6022-1.8992-17.2145-3.8992-25.7864-5.9994c-6.3912-1.5575-13.2549-2.6228-19.6964-0.834
		c-2.2711,0.5226-5.2055,3.2157-3.1254,5.527c5.6879,3.1957,12.431,3.6681,18.6011,5.5573
		c9.3358,2.8842,18.963,4.894,28.7308,5.5673c4.8235,1.1355,9.8181,0.2212,14.6618,1.236
		c8.0394,1.3265,16.1188-0.3215,24.1181-1.0652c3.5875-0.8943,7.738-0.2411,10.8531-2.5323
		c5.0648-0.4121,9.999-1.7485,15.0637-2.2007l-0.1506-0.8241c4.2508-0.0303,8.4211-0.9446,12.6318-1.4572
		c11.3857-1.5275,22.9825-1.7687,34.087-4.9644c0.1506-0.3315,0.4421-0.9949,0.5828-1.3264
		C664.0403,1055.0652,653.3581,1054.422,643.3892,1050.7943z"/>
	<linearGradient id="SVGID_6_" gradientUnits="userSpaceOnUse" x1="490.9663" y1="1098.0629" x2="665.9536" y2="1098.0629">
		<stop  offset="0" style="stop-color:#B11414"/>
		<stop  offset="1" style="stop-color:#BB3232"/>
	</linearGradient>
	<path fill="url(#SVGID_6_)" d="M601.4489,1090.0361c-6.4656-0.7083-12.9312,0.3744-19.407,0.2225
		c-15.1573-0.2023-30.3349-0.1921-45.4113-1.7505c-5.8686-1.3862-12.0105-1.194-17.9601-2.145
		c-9.2077-1.6493-18.5267-2.5499-27.7041-4.3003c0.2631,1.204,0.3138,2.5903,1.3357,3.4806
		c5.2413,5.5853,10.857,10.9785,17.5856,14.7628c9.5013,5.3627,20.1357,8.3274,30.7296,10.6951
		c8.297,1.8417,16.7964,1.9326,25.1947,3.0051c9.7946-0.1012,19.6702,0.5768,29.3838-1.0522
		c5.9597-0.9512,12.4052-1.123,17.7679-4.098c4.5837-0.2225,8.9041-2.145,13.4271-2.9039
		c4.1585-1.2546,8.7928-1.5784,12.4859-4.0271c10.7762-3.0457,20.0041-10.4321,27.0768-18.9922
		C644.6646,1086.8386,623.072,1089.1963,601.4489,1090.0361z"/>
	<path fill="#D89A72" stroke="#D89A72" stroke-width="0.2" d="M467.09,1266.97c68.76,14.61,140.76,13.6,209.13-2.7
		c1.71-0.8201,2.8,0.86,4,1.7999c-1.93,6.78-3.71,13.6001-5.83,20.3301c-9.24,2.58-18.94,2.63-28.42,3.6699
		c-7.34,0.75-14.72,0.8401-22.06,1.5901c-9.37,0.62-18.78-0.01-28.1299,0.9299c-5.6,0.61-11.1801-0.47-16.77-0.4199
		c-37.86,0.3199-75.66-3.03-113.17-7.9601c-1.81-0.2899-3.45-1.11-5.1-1.83c0.02,0.46,0.06,1.36,0.08,1.8199
		c-1.6-6.1399-3.62-12.1699-4.88-18.38C459.69,1264.73,463.41,1266.3,467.09,1266.97z"/>
	<path fill="#DEAA87" stroke="#DEAA87" stroke-width="0.2" d="M460.74,1282.38c1.65,0.72,3.29,1.54,5.1,1.83
		c37.51,4.9301,75.31,8.28,113.17,7.9601c5.59-0.05,11.17,1.0299,16.77,0.4199c9.35-0.9399,18.7599-0.3099,28.1299-0.9299
		c7.34-0.75,14.72-0.8401,22.06-1.5901c9.48-1.0399,19.1801-1.09,28.42-3.6699c-4.22,16.0499-7.51,32.34-11.11,48.5399
		c6.71,1.2401,13.45,2.3501,20.15,3.63c4.8,0.9,9.49,2.41,14.39,2.66c-34.75,73.8-69.35,147.67-104.08,221.48
		c-4.66,10.2101-9.67,20.26-14.19,30.53c-2.1-2.33-3.49-5.15-4.9-7.9c-44.53-81.34-89.25-162.5699-133.7-243.95
		c10.58-2.29,21.27-4.0601,31.87-6.23c-4.32-16.91-8.22-33.9301-12-50.9601C460.8,1283.74,460.76,1282.84,460.74,1282.38z"/>
	<path fill="#CCCCCC" stroke="#CCCCCC" stroke-width="0.2" d="M700.19,1335.96c15.3,1.6001,30.47,4.26,45.71,6.4
		c49.36,7.9401,98.53,17.53,146.67,31.14c20.53,5.95,40.92,12.67,60.38,21.61c14.29,6.8,28.84,14.5,39.24,26.75
		c5.8,6.4401,7.91,15.01,11.11,22.84c11.35,30.2001,19.56,61.4801,26.5001,92.9601c10.5599,50.24,17.09,101.25,21.08,152.39
		c5.96,76.47,6.86,153.35,3.15,229.95h-29.53c-16.17-0.3199-32.33-0.15-48.5-0.28c-107.67-0.4099-215.33-0.59-323-1.22
		c-111-0.61-222-0.53-333-1.39c-1.91-0.03-3.84-0.0599-5.73,0.27c-6.05,1.35-12.18-0.29-18.26-0.3199
		c-67-0.2001-134.02-0.28-201.02-0.77c-1.8,0.2999-1.16-2.3101-1.62-3.3201c-2.59-24.9-4.27-49.89-5.29-74.9099
		c-3.63-97.15,2.26-194.5901,16.85-290.6901c2.67-13.33,4.3-26.85,7.11-40.15c4.78-26.25,10.55-52.3099,16.88-78.23
		c1.19-4.86,3.71-9.34,7.15-12.95c8.43-9.1001,19.53-15.0901,30.6-20.3301c21.06-9.71,43.34-16.3999,65.68-22.4299
		c22.65-5.79,45.42-11.1,68.39-15.47c45.5-8.8,91.32-15.9601,137.34-21.3601c0.96,1.63,1.92,3.27,2.87,4.9401
		c44.45,81.38,89.17,162.61,133.7,243.95c1.41,2.75,2.8,5.5701,4.9,7.9c4.52-10.27,9.53-20.3199,14.19-30.53
		c34.73-73.8099,69.33-147.6799,104.08-221.48C698.63,1339.47,699.4,1337.71,700.19,1335.96 M703.22,1340.95
		c-39.7599,85.2201-80.06,170.1901-119.9,255.37c-1.66,2.9901-2.55,6.51-5.06,8.9601c-48.09-87.76-96.4-175.41-144.63-263.0901
		c-14.56,1.91-29.22,3.3-43.7,5.7301c18.94,29.0299,38.27,57.7999,57.41,86.7c44.11,66.87,88.6,133.49,132.65,200.39
		c0.47,0.88,1.14,1.55,2.01,2.01c1.99-2.21,2.81-5.1801,4.26-7.72c44.24-87.0601,88.77-173.9501,133.1-260.9601
		c3.44-7.37,7.77-14.36,10.66-21.97C720.98,1345.08,712.32,1341.71,703.22,1340.95 M733.41,1348.21
		c-0.59,1.41-1.19,2.8501-1.87,4.24c-45.96,90.0701-91.92,180.14-137.88,270.2101c-3.95,7.22-7.0699,14.9099-11.49,21.86
		c-20.29-30.01-40.02-60.41-60.14-90.54c-43.81-66.2-87.74-132.3199-131.52-198.54c-1.47-1.86-2.43-5.5199-5.48-4.6
		c-22.43,3.2101-44.77,7.02-67.07,11.05c-39.12,7.39-78.18,15.6799-116.1,27.95c-18.08,6.2201-36.42,12.78-52.2,23.85
		c-5.58,4.3501-11.72,9.26-13.52,16.4701c-19.86,79.9199-32.29,161.65-37.96,243.7799c-5.48,78.2301-5.43,156.9301,1.98,235.03
		c18.27,0.27,36.56-0.2999,54.81,0.6801c38.69-0.04,77.39,0.03,116.08,0.13c2.25-23.67,3.52-47.4401,5.47-71.15
		c3.57-48.88,7.21-97.76,10.78-146.65c1.05-10.28,1.05-20.6799,2.6-30.89c0.78,0.01,2.33,0.02,3.11,0.02
		c1.1,7.92,1.32,15.9301,2.07,23.9c3.98,50.98,7.88,101.98,11.88,152.96c1.7,23.9501,4,47.87,5.31,71.8401
		c2.91,0.08,5.82,0.1499,8.73,0.1499c55,0.02,110,0.55,165,0.38c23.99,0.74,48,0.3101,72,0.5701c31,0.09,62.01,0.0499,93.01,0.2799
		c14.65,0.8201,29.32,0.29,43.99,0.4501c50.58-0.15,101.17,0.41,151.75,0.2c2.43-36,5.69-71.9399,8.37-107.9199
		c4.02-48.64,7.52-97.3301,11.78-145.9401c0.8199-0.0599,2.47-0.1799,3.29-0.24c1.29,8.74,1.49,17.61,2.42,26.41
		c4.28,51.49,8.62,102.98,12.88,154.47c2.21,24.4401,3.79,48.95,6.37,73.34c12.03,0.3301,24.09-0.08,36.11,0.64
		c39.65,0.16,79.3-0.1,118.9501,0.26c1.34-13.59,0.74-27.27,1.6799-40.87c1.0801-54.02,0.04-108.08-3.58-161.99
		c-3.11-47.36-8.27-94.63-16.61-141.38c-8.1201-45.1899-19.26-90.02-36.26-132.73c-1.91-5.28-5.47-9.74-9.4301-13.62
		c-7.95-7.4401-17.48-12.91-27.11-17.85c-19.08-9.38-39.27-16.26-59.6-22.36c-44.31-12.9-89.6-22.14-135.07-29.8701
		C751.76,1350.88,742.68,1348.6801,733.41,1348.21 M868.1,1684.1801c-1.8,27.96-4.45,55.85-6.42,83.7999
		c-4.03,47.9401-7.46,95.9501-11.62,143.88c4.98,0.3201,9.94,0.96,14.94,1.11c7.7-0.02,15.34,1.37,23.06,1.0801
		c-1.77-24.3601-4-48.6801-6-73.02c-4.35-52.29-8.66-104.5901-13.15-156.87L868.1,1684.1801 M291.08,1689.24
		c-3.59,50.6-7.44,101.17-11.13,151.77c-1.56,23.65-3.82,47.28-4.98,70.95c11.34,0.9701,22.7,1.73,34.08,2.12
		c-1.64-26.71-4.14-53.38-6.04-80.08c-3.67-48.27-7.65-96.5-11.12-144.79L291.08,1689.24z"/>
	<path fill="#B3B3B3" stroke="#B3B3B3" stroke-width="0.2" d="M703.22,1340.95c9.1,0.76,17.76,4.13,26.8,5.42
		c-2.89,7.61-7.22,14.6-10.66,21.97c-44.33,87.01-88.86,173.9-133.1,260.9601c-1.45,2.5399-2.27,5.51-4.26,7.72
		c-0.87-0.46-1.54-1.13-2.01-2.01c-44.05-66.9-88.54-133.52-132.65-200.39c-19.14-28.9-38.47-57.67-57.41-86.7
		c14.48-2.4301,29.14-3.8201,43.7-5.7301c48.23,87.6801,96.54,175.3301,144.63,263.0901c2.51-2.4501,3.4-5.97,5.06-8.9601
		C623.16,1511.14,663.46,1426.17,703.22,1340.95z"/>
	<path fill="#FFFFFF" stroke="#FFFFFF" stroke-width="0.2" d="M733.41,1348.21c9.27,0.4701,18.35,2.67,27.53,3.98
		c45.47,7.7301,90.76,16.9701,135.07,29.8701c20.33,6.1,40.52,12.98,59.6,22.36c9.63,4.9399,19.16,10.4099,27.11,17.85
		c3.96,3.88,7.52,8.34,9.4301,13.62c17,42.71,28.14,87.54,36.26,132.73c8.34,46.75,13.5,94.02,16.61,141.38
		c3.62,53.91,4.66,107.97,3.58,161.99c-0.9399,13.6-0.34,27.28-1.6799,40.87c-39.65-0.36-79.3-0.1-118.9501-0.26
		c-12.02-0.72-24.08-0.3099-36.11-0.64c-2.58-24.39-4.16-48.8999-6.37-73.34c-4.26-51.49-8.6-102.98-12.88-154.47
		c-0.93-8.8-1.13-17.67-2.42-26.41c-0.82,0.0601-2.47,0.1801-3.29,0.24c-4.26,48.61-7.76,97.3-11.78,145.9401
		c-2.68,35.98-5.94,71.9199-8.37,107.9199c-50.58,0.2101-101.17-0.35-151.75-0.2c-14.67-0.16-29.34,0.37-43.99-0.4501
		c-31-0.23-62.01-0.1899-93.01-0.2799c-24-0.26-48.01,0.1699-72-0.5701c-55,0.17-110-0.36-165-0.38c-2.91,0-5.82-0.0699-8.73-0.1499
		c-1.31-23.9701-3.61-47.89-5.31-71.8401c-4-50.98-7.9-101.98-11.88-152.96c-0.75-7.97-0.97-15.98-2.07-23.9
		c-0.78,0-2.33-0.01-3.11-0.02c-1.55,10.2101-1.55,20.61-2.6,30.89c-3.57,48.89-7.21,97.77-10.78,146.65
		c-1.95,23.71-3.22,47.48-5.47,71.15c-38.69-0.1-77.39-0.17-116.08-0.13c-18.25-0.98-36.54-0.41-54.81-0.6801
		c-7.41-78.1-7.46-156.7999-1.98-235.03c5.67-82.1299,18.1-163.86,37.96-243.7799c1.8-7.2101,7.94-12.12,13.52-16.4701
		c15.78-11.0699,34.12-17.6299,52.2-23.85c37.92-12.27,76.98-20.5599,116.1-27.95c22.3-4.03,44.64-7.84,67.07-11.05
		c3.05-0.9199,4.01,2.74,5.48,4.6c43.78,66.2201,87.71,132.3401,131.52,198.54c20.12,30.13,39.85,60.53,60.14,90.54
		c4.42-6.9501,7.54-14.64,11.49-21.86c45.96-90.0701,91.92-180.14,137.88-270.2101C732.22,1351.0601,732.82,1349.62,733.41,1348.21z
		"/>
	<path fill="#B3B3B3" stroke="#B3B3B3" stroke-width="0.2" d="M868.1,1684.1801l0.81-0.02c4.4901,52.2799,8.8,104.58,13.15,156.87
		c2,24.34,4.23,48.6599,6,73.02c-7.72,0.2899-15.36-1.1001-23.06-1.0801c-5-0.15-9.96-0.7899-14.94-1.11
		c4.16-47.9299,7.59-95.9399,11.62-143.88C863.65,1740.03,866.3,1712.14,868.1,1684.1801z"/>
	<path fill="#B3B3B3" stroke="#B3B3B3" stroke-width="0.2" d="M291.08,1689.24l0.81-0.03c3.47,48.29,7.45,96.52,11.12,144.79
		c1.9,26.7,4.4,53.37,6.04,80.08c-11.38-0.39-22.74-1.1499-34.08-2.12c1.16-23.6699,3.42-47.2999,4.98-70.95
		C283.64,1790.41,287.49,1739.84,291.08,1689.24z"/>
</g>
</svg>
